<mxfile host="app.diagrams.net" modified="2023-10-09T05:01:07.387Z" agent="Mozilla/5.0 (Macintosh; Intel Mac OS X 10_15_7) AppleWebKit/537.36 (KHTML, like Gecko) Chrome/117.0.0.0 Safari/537.36" etag="g0vnObSQT7p6HSfQeZSl" version="22.0.0" type="github">
  <diagram name="Page-1" id="iypcFImoEaEjj6QLG_X3">
    <mxGraphModel dx="948" dy="629" grid="1" gridSize="10" guides="1" tooltips="1" connect="1" arrows="1" fold="1" page="1" pageScale="1" pageWidth="2336" pageHeight="1654" math="0" shadow="0">
      <root>
        <mxCell id="0" />
        <mxCell id="1" parent="0" />
        <mxCell id="VLIAMMphG7205jD4h9c6-11" value="&lt;p style=&quot;border-color: var(--border-color); color: rgb(0, 0, 0); font-family: Helvetica; font-style: normal; font-variant-ligatures: normal; font-variant-caps: normal; font-weight: 400; letter-spacing: normal; orphans: 2; text-align: left; text-indent: 0px; text-transform: none; widows: 2; word-spacing: 0px; -webkit-text-stroke-width: 0px; background-color: rgb(251, 251, 251); text-decoration-thickness: initial; text-decoration-style: initial; text-decoration-color: initial; line-height: 1.2; margin-top: 0pt; margin-bottom: 0pt; font-size: 8px;&quot; dir=&quot;ltr&quot;&gt;&lt;font style=&quot;font-size: 8px;&quot;&gt;&lt;span style=&quot;border-color: var(--border-color); font-family: Roboto, sans-serif; color: rgb(0, 0, 0); background-color: transparent; font-weight: 700; font-style: normal; font-variant: normal; text-decoration: none; vertical-align: baseline;&quot;&gt;ID&lt;/span&gt;&lt;span style=&quot;border-color: var(--border-color); font-family: Roboto, sans-serif; color: rgb(0, 0, 0); background-color: transparent; font-weight: 400; font-style: normal; font-variant: normal; text-decoration: none; vertical-align: baseline;&quot;&gt;&lt;span&gt;&amp;nbsp;&lt;/span&gt;&amp;nbsp; &amp;nbsp; &amp;nbsp;&lt;span&gt;&amp;nbsp;&lt;/span&gt;&lt;/span&gt;&lt;span style=&quot;border-color: var(--border-color); font-family: Roboto, sans-serif; color: rgb(0, 0, 0); background-color: transparent; font-weight: 700; font-style: normal; font-variant: normal; text-decoration: none; vertical-align: baseline;&quot;&gt;Amount&lt;/span&gt;&lt;/font&gt;&lt;/p&gt;&lt;font style=&quot;font-size: 8px;&quot;&gt;&lt;br style=&quot;border-color: var(--border-color); color: rgb(0, 0, 0); font-family: Helvetica; font-style: normal; font-variant-ligatures: normal; font-variant-caps: normal; font-weight: 400; letter-spacing: normal; orphans: 2; text-align: left; text-indent: 0px; text-transform: none; widows: 2; word-spacing: 0px; -webkit-text-stroke-width: 0px; background-color: rgb(251, 251, 251); text-decoration-thickness: initial; text-decoration-style: initial; text-decoration-color: initial;&quot;&gt;&lt;/font&gt;&lt;p style=&quot;border-color: var(--border-color); color: rgb(0, 0, 0); font-family: Helvetica; font-style: normal; font-variant-ligatures: normal; font-variant-caps: normal; font-weight: 400; letter-spacing: normal; orphans: 2; text-align: left; text-indent: 0px; text-transform: none; widows: 2; word-spacing: 0px; -webkit-text-stroke-width: 0px; background-color: rgb(251, 251, 251); text-decoration-thickness: initial; text-decoration-style: initial; text-decoration-color: initial; line-height: 1.2; margin-top: 0pt; margin-bottom: 0pt; font-size: 8px;&quot; dir=&quot;ltr&quot;&gt;&lt;span style=&quot;border-color: var(--border-color); font-family: Roboto, sans-serif; color: rgb(0, 0, 0); background-color: transparent; font-weight: 400; font-style: normal; font-variant: normal; text-decoration: none; vertical-align: baseline;&quot;&gt;&lt;font style=&quot;font-size: 8px;&quot;&gt;2455 &amp;nbsp; &amp;nbsp; &amp;nbsp; $45&lt;/font&gt;&lt;/span&gt;&lt;/p&gt;&lt;p style=&quot;border-color: var(--border-color); color: rgb(0, 0, 0); font-family: Helvetica; font-style: normal; font-variant-ligatures: normal; font-variant-caps: normal; font-weight: 400; letter-spacing: normal; orphans: 2; text-align: left; text-indent: 0px; text-transform: none; widows: 2; word-spacing: 0px; -webkit-text-stroke-width: 0px; background-color: rgb(251, 251, 251); text-decoration-thickness: initial; text-decoration-style: initial; text-decoration-color: initial; line-height: 1.2; margin-top: 0pt; margin-bottom: 0pt; font-size: 8px;&quot; dir=&quot;ltr&quot;&gt;&lt;span style=&quot;border-color: var(--border-color); font-family: Roboto, sans-serif; color: rgb(0, 0, 0); background-color: transparent; font-weight: 400; font-style: normal; font-variant: normal; text-decoration: none; vertical-align: baseline;&quot;&gt;&lt;font style=&quot;font-size: 8px;&quot;&gt;8745 &amp;nbsp; &amp;nbsp; &amp;nbsp; $30&lt;/font&gt;&lt;/span&gt;&lt;/p&gt;&lt;p style=&quot;border-color: var(--border-color); color: rgb(0, 0, 0); font-family: Helvetica; font-style: normal; font-variant-ligatures: normal; font-variant-caps: normal; font-weight: 400; letter-spacing: normal; orphans: 2; text-align: left; text-indent: 0px; text-transform: none; widows: 2; word-spacing: 0px; -webkit-text-stroke-width: 0px; background-color: rgb(251, 251, 251); text-decoration-thickness: initial; text-decoration-style: initial; text-decoration-color: initial; line-height: 1.2; margin-top: 0pt; margin-bottom: 0pt; font-size: 8px;&quot; dir=&quot;ltr&quot;&gt;&lt;span style=&quot;border-color: var(--border-color); font-family: Roboto, sans-serif; color: rgb(0, 0, 0); background-color: transparent; font-weight: 400; font-style: normal; font-variant: normal; text-decoration: none; vertical-align: baseline;&quot;&gt;&lt;font style=&quot;font-size: 8px;&quot;&gt;9753 &amp;nbsp; &amp;nbsp; &amp;nbsp; $40&lt;/font&gt;&lt;/span&gt;&lt;/p&gt;&lt;p style=&quot;border-color: var(--border-color); color: rgb(0, 0, 0); font-family: Helvetica; font-style: normal; font-variant-ligatures: normal; font-variant-caps: normal; font-weight: 400; letter-spacing: normal; orphans: 2; text-align: left; text-indent: 0px; text-transform: none; widows: 2; word-spacing: 0px; -webkit-text-stroke-width: 0px; background-color: rgb(251, 251, 251); text-decoration-thickness: initial; text-decoration-style: initial; text-decoration-color: initial; line-height: 1.2; margin-top: 0pt; margin-bottom: 0pt; font-size: 8px;&quot; dir=&quot;ltr&quot;&gt;&lt;span style=&quot;border-color: var(--border-color); font-family: Roboto, sans-serif; color: rgb(0, 0, 0); background-color: transparent; font-weight: 400; font-style: normal; font-variant: normal; text-decoration: none; vertical-align: baseline;&quot;&gt;&lt;font style=&quot;font-size: 8px;&quot;&gt;4875 &amp;nbsp; &amp;nbsp; &amp;nbsp; $45&lt;/font&gt;&lt;/span&gt;&lt;/p&gt;" style="shape=note;whiteSpace=wrap;html=1;backgroundOutline=1;darkOpacity=0.05;" vertex="1" parent="1">
          <mxGeometry x="205" y="246" width="80" height="90" as="geometry" />
        </mxCell>
        <mxCell id="VLIAMMphG7205jD4h9c6-12" value="" style="shape=image;imageAspect=0;aspect=fixed;verticalLabelPosition=bottom;verticalAlign=top;image=data:image/png,iVBORw0KGgoAAAANSUhEUgAABB0AAAN7CAYAAAAJD+JXAAAAAXNSR0IArs4c6QAAAIRlWElmTU0AKgAAAAgABQESAAMAAAABAAEAAAEaAAUAAAABAAAASgEbAAUAAAABAAAAUgEoAAMAAAABAAIAAIdpAAQAAAABAAAAWgAAAAAAAACQAAAAAQAAAJAAAAABAAOgAQADAAAAAQABAACgAgAEAAAAAQAABB2gAwAEAAAAAQAAA3sAAAAAVw3QgQAAAAlwSFlzAAAWJQAAFiUBSVIk8AAAAVlpVFh0WE1MOmNvbS5hZG9iZS54bXAAAAAAADx4OnhtcG1ldGEgeG1sbnM6eD0iYWRvYmU6bnM6bWV0YS8iIHg6eG1wdGs9IlhNUCBDb3JlIDUuNC4wIj4KICAgPHJkZjpSREYgeG1sbnM6cmRmPSJodHRwOi8vd3d3LnczLm9yZy8xOTk5LzAyLzIyLXJkZi1zeW50YXgtbnMjIj4KICAgICAgPHJkZjpEZXNjcmlwdGlvbiByZGY6YWJvdXQ9IiIKICAgICAgICAgICAgeG1sbnM6dGlmZj0iaHR0cDovL25zLmFkb2JlLmNvbS90aWZmLzEuMC8iPgogICAgICAgICA8dGlmZjpPcmllbnRhdGlvbj4xPC90aWZmOk9yaWVudGF0aW9uPgogICAgICA8L3JkZjpEZXNjcmlwdGlvbj4KICAgPC9yZGY6UkRGPgo8L3g6eG1wbWV0YT4KTMInWQAAQABJREFUeAHs3ct2U0f68OGqLWwL6BU7M3f3ANE3gHMFiBWSKe4rQEySL6M489AR/2QeZ5TDBHEFMdMOWYgraHMDjTzojmdYWU2QbbTre0uWwRgdtqR9qKr901oEW7t21VtPCcd6VQeleCCAAAIIIIAAAggggAACCCCAAAIIIIAAAggggAACCCCAAAIIIIAAAggggAACCCCAAAIIIIAAAggggAACCCCAAAIIIIAAAggggAACCCCAAAIIIIAAAggggAACCCCAAAIIIIAAAggggAACCCCAAAIIIIAAAggggAACCCCAAAIIIIAAAggggAACCCCAAAIIIIAAAggggAACCCCAAAIIIIAAAggggAACCCCAAAIIIIAAAggggAACCCCAAAIIIIAAAggggAACCCCAAAIIIIAAAggggAACCCCAAAIIIIAAAggggAACCCCAAAIIIIAAAggggAACCCCAAAIIIIAAAggggAACCCCAAAIIIIAAAggggAACCCCAAAIIIIAAAggggAACCCCAAAIIIIAAAggggAACCCCAAAIIIIAAAggggAACCCCAAAIIIIAAAggggAACCCCAAAIIIIAAAggggAACCCCAAAIIIIAAAggggAACCCCAAAIIIIAAAggggAACCCCAAAIIIIAAAggggAACCCCAAAIIIIAAAggggAACCCCAAAIIIIAAAggggAACCCCAAAIIIIAAAggggAACCCCAAAIIIIAAAggggAACCCCAAAIIIIAAAggggAACCCCAAAIIIIAAAggggAACCCCAAAIIIIAAAggggAACCCCAAAIIIIAAAggggAACCCCAAAIIIIAAAggggAACCCCAAAIIIIAAAggggAACCCCAAAIIIIAAAggggAACCCCAAAIIIIAAAggggAACCCCAAAIIIIAAAggggAACCCCAAAIIIIAAAggggAACCCCAAAIIIIAAAggggAACCCCAAAIIIIAAAggggAACCCCAAAIIIIAAAggggAACCCCAAAIIIIAAAggggAACCCCAAAIIIIAAAggggAACCCCAAAIIIIAAAggggAACCCCAAAIIIIAAAggggAACCCCAAAIIIIAAAggggAACCCCAAAIIIIAAAggggAACCCCAAAIIIIAAAggggAACCCCAAAIIIIAAAggggAACCCCAAAIIIIAAAggggAACCCCAAAIIIIAAAggggAACCCCAAAIIIIAAAggggAACCCCAAAIIIIAAAggggAACCCCAAAIIIIAAAggggAACCCCAAAIIIIAAAggggAACCCCAAAIIIIAAAggggAACCCCAAAIIIIAAAggggAACCCCAAAIIIIAAAggggAACCCCAAAIIIIAAAggggAACCCCAAAIIIIAAAggggAACCCCAAAIIIIAAAggggAACCCCAAAIIIIAAAggggAACCCCAAAIIIIAAAggggAACCCCAAAIIIIAAAggggAACCCCAAAIIIIAAAggggAACCCCAAAIIIIAAAggggAACCCCAAAIIIIAAAggggAACCCCAAAIIIIAAAggggAACCCCAAAIIIIAAAggggAACCCCAAAIIIIAAAggggAACCCCAAAIIIIAAAggggAACCCCAAAIIIIAAAggggAACCCCAAAIIIIAAAggggAACCCCAAAIIIIAAAggggAACCCCAAAIIIIAAAggggAACCCCAAAIIIIAAAggggAACCCCAAAIIIIAAAggggAACCCCAAAIIIIAAAggggAACCCCAAAIIIIAAAggggAACCCCAAAIIIIAAAggggAACCCCAAAIIIIAAAggggAACCCCAAAIIIIAAAggggAACCCCAAAIIIIAAAggggAACCCCAAAIIIIAAAggggAACCCCAAAIIIIAAAggggAACCCCAAAIIIIAAAggggAACCCCAAAIIIIAAAggggAACCCCAAAIIIIAAAgj4LaD9Dp/oEUAAAQQQ8EfgQrVaj5Sq+xNxcZEapTrHvV6ruAhoGQEEEEAAAQTSELiQRiXUgQACCJRNwL55lKxtzf4xRq8pZTbeGGj52qye+b4r3+++/t6ojo5Ux76psn9e9Xrt19f4ImgBm3AwRn0VdCfT69wTqaqVXnXUhAACCCCAAAJFCJB0KEKdNhFAwCuBpaXLGyqK68pIYkEPPqW+oiRbYB8nfw2/OXnq9bOvvz1JQFx//b1W1+WN5+Bhp5strVTt13tG6V35vq3iqH18/OJNkmJQkv+EIGBiVZPXEA8EEJhB4Pnj2lr1VU9+DqtabP8NyUMSt3X797iH/IztyA/ozuC6jnYjEx9c/Gi/Pa48zyOAAAIIZCfArz7Z2VIzAgh4K7C2trx8VDcq3lRab0pq4cyshbw6pbuSl2hrbXaOe9UdpQ4O8mqZdrITkARTW2p/k4DKrqkQan5yfNirh9AR+pBc4OXj9Vrcjza0MnWlzYY2akN+Fqb5M3hPUha7xphdmXnUJhGRfGwoiQACCMwrQNJhXjnuQwCB4ASWly9tniQa1G3XOiezIB6eJCBY4+7a2MwSD0mHWbQUSYeZuPwt/PKX9boZJHjt7AVzLfeeaPVEEhE7OjI7F2/sd3JvnwYRQACBwAVIOgQ+wHQPAQSmCcishmpvS6biNqTklWmli7+uZX8I1apos93r9TrFx0MEswgsrVyUGStFzJyZJUpnypJ0cGYo0g/EJhpirRoy20CSvanOZFgwWP1UlkC1SEAsyMjtCCCAwBkBkg5nMPgSAQTKI1CtVmv9WDXll0vnZjUkHgWjHlQi1ST5kFis8IIy00HeX/FIKEDSISGUL8Xs3gwr8WFD9sfZkpivuB+3fiizzFqXb/5XlrjxQAABBBCYV4Ckw7xy3IcAAl4KBJFsOC9P8uG8iJPfD157Rj1zMjg3gyLp4Oa4zBzVyT4NqunerIbEXdnTWjUvfrjfSnwHBRFAAAEEXgvIz38eCCCAQBkE7DKKarNv3/T5PLth1FBJf2y/ZOr+tlJra6OK8FzxAq+UqhUfBREgkJ+ATTa8eLTeMn31TD7lui3TfNLcEDK/jsisDFmCd/+PR+udl7+uN/JsmLYQQACBEASY6RDCKNIHBBCYKDDYIFKbVjnW0g/2fGgeH76UBAQPlwQuVKt12Yn/sUsxOR4LMx0cH6Bx4dllFMuveluRVlseJxrGdc8+v2dUtMWyi0lEXEMAAQTeCDDT4Y0FXyGAQHACa2sXVi7uGB3/XI6Egx1Au0mh+daekmCn8wc3pB53SP6HW/c4fEJHIJHAi0d/2Vzp93ZlOcJXgSYcrMMVreKf//h1vW1ncySCoRACCCBQYgGSDiUefLqOQMgCdnbD0sphR856vxVyPyf07Xrf6N2larUxoQyXEEAAgVQE7OyGPx79ece+GZcKr6RSqeuVGHXdLh158ct60/VQiQ8BBBAoUoCkQ5H6tI0AApkI2L0NyjW7YRyjzHqQdchLy9UWez2MM8rveVkTXs+vNVpCID8BO7uh2u91ZJZVKZO8dlaHJFx2mfWQ32uOlhBAwC8Bkg5+jRfRIoDARIG1NUk47Movvp9PLFa2i7LRpMz6aC8tXd4oW9fpLwIIZCdgZzfYjSLt7IaAl1IkBDTXVF/tstFkQi6KIYBAqQRIOpRquOksAuEK2DfUdjmFJByuhdvLRXomLlHctpsZLlIL9y4kcH2hu7kZAYcE7Kf6K/3Dtj2VwqGwCg3FJl7sKRc2EVNoIDSOAAIIOCZA0sGxASEcBBCYXcDu32DfUEvCYXX2u8t0h1m1pyewz0OZxpy+IpC+wP/++dcN+6k+Sd7RtjYRY5db2Jkgo0vwLAIIIFAuAZIO5RpveotAcAL2DTT7N8w4rHafBzaYnBFtseLMMFnMj7vdEbDLB6Ko/y+WU0wbE3PNzgRhn4dpTlxHAIEyCJB0KMMo00cEAhUYvHGWN9CBdi/bbpF4yNb3XO1RHPGJ5zmTad8apQ+mleF6vgI24WCXD+Tbqs+tnezzMJgZ4nM3iB0BBBBYUICkw4KA3I4AAsUIkHBIwZ3EQwqICauI4o2EJSk2FIi02QXDHQESDvONhZ0RUon6bRIP8/lxFwIIhCFA0iGMcaQXCJRKgIRDisNN4iFFzPFVmVjVxl/lCgJuC5BwWGx8SDws5sfdCCDgvwBJB//HkB4gUCqBwbGPRm+XqtNZd1YSD4PNOLNup8z1a5IOZR5+n/tOwiGd0SPxkI4jtSCAgJ8CJB38HDeiRqCUAtVqtcYpFdkMvdGmNUjoZFM9tSrN8gpeBd4JvHj0l032cEhv2GziIYriFqdapGdKTQgg4IcASQc/xokoEUBAra31jd7hWMysXgpy3GjUF9+1taxaKG+91pTjXGce/zjanfkebkhNwO5BEKm4lVqFVDQUODnVAg4EEECgTAIkHco02vQVAY8FlpZ725wJn/kAXrmwctjKvJWSNXCh2tsoWZdT6W4cxQepVEQlMwvYT+LlWMwd+8n8zDdzQwIBc+3Fo/VWgoIUQQABBIIQIOkQxDDSCQTCFhhsHKnV7bB76UbvtDK3llYubrkRTRhRaMV+DmGMZHl6sRL3dqS3V8rT4/x7Kj8Xbtv9MvJvmRYRQACB/AVIOuRvTosIIDCDwGAfBzaOnEEsjaLmW/Z3SMPxpA6SDvNZ6n6FmQ7z0S1014tf1pvKqOsLVcLNyQSM2uYozWRUlEIAAb8FSDr4PX5Ej0DwAn2jWqyHL2CYZbOzAloNsknZiK8eZMcy7tTx8YvdjJug+nMC9g2w1uqrc0/zbUYCZrixZEbVUy0CCCDgjABJB2eGgkAQQOC8wHCaP5+4nYfJ5XtzbblabebSVPiN1MLvIj0MQcCerBBCP/zqg+zvYGeX8EAAAQQCFpBZnzwQQAABFwXW1pZWDjvMcihybHS3os1Gr9eTceAxn4B9Hfeez3dvqe/aOz7s1UotkHPn7RtfZjnkjH6muTiufPCnj//D7J4zJnyJAALhCDDTIZyxpCcIBCUwPK2CndMLHVWz+or9NBYaAU6umJuvM/ed3DizwMvH6zUSDjOzpXpDVOlvp1ohlSGAAAIOCZB0cGgwCAUBBE4EBptHclqFEy8He5rFhWq17kQwHgahjd7wMGxCLpmAie3eOTwKFZDNOznNotARoHEEEMhQgKRDhrhUjQAC8wnw6fp8blndpY1qZlV38PUaQ9JhrkHWTDOfy232m17+sl7ntIrZ3TK5Q06zeP64tpZJ3VSKAAIIFChA0qFAfJpGAIF3Beyn6vbT9Xev8EyBAteZ7TCnvmamwzxyWpuDee7jntkFjGaWw+xq2dxhT7NYftXbyqZ2akUAAQSKEyDpUJw9LSOAwAgBHavGiKd5qmABZjvMOwDm2rx3lvk+YzRJhxxeAMPp/FdyaIomEgpEWm0x2yEhFsUQQMAbAZIO3gwVgSIQvgB7OTg9xsx2mHF4mB0yI9iZ4kab3TPf8mVGAoalUxnJzl8tsx3mt+NOBBBwV4Ckg7tjQ2QIlE6gH7N3gMuDziyU2UaHTSRn8zpbWvcrzHQ4C5LB14O9HJRilkMGtotWaWc7LFoH9yOAAAIuCZB0cGk0iAWBUgusrSmtN0tN4Hrn5USRwWwU1+N0JT42kZx7JI6PXzDTYW69ZDeaiCRvMqn8S9nZDpxkkb87LSKAQHYCJB2ys6VmBBCYQWCp2pOEg1md4RaKFiDQNySGErOziWRiqrcL6u7b3/Nd2gIvH6/XOLEibdV065N9TZjtkC4ptSGAQIECJB0KxKdpBBA4I2DYQPKMhsNfGn4RTjw6bCKZmOqtguzn8BZHBt+YPm9oM2BNuUpz7X///OtGypVSHQIIIFCIAEmHQthpFAEEzgoMp+xfP/scXzsrcGVp6TK/CE8ZHjaRnAI04bJRnFwxgSelS2YzpYqoJkOBKIobGVZP1QgggEBuAiQdcqOmIQQQGCfAlP1xMo4+zy/CUwdG/udan1qIAiMFIk6uGOmS1pMvHv3FJhzYQDIt0Azr0co0MqyeqhFAAIHcBEg65EZNQwggME5ANs2qj7vG804KMF5ThiU2mtkgU4zGXZa17AfjrvF8GgIxsxzSYMyhjsGGkr+s13NoiiYQQACBTAVIOmTKS+UIIJBEQD7NuZWkHGVcETDXOMVi8lhoEmmTgSZcNcx0mKCz+CVem4sb5lmD4VSnPLlpCwEEMhIg6ZARLNUigEAygeXlS3zqlozKqVJ93lSPHY+TPS84iWUs0JQLF5TqTCnC5TkFhhsTsrRiTr9ibmP/jWLcaRUBBNIUIOmQpiZ1IYDA7AJRzDT02dWKvyNmSczYQYji+thrXJgq0Ov1OlMLUWAugajCa3MuuGJvujI44rTYGGgdAQQQWEiApMNCfNyMAAKLChjDm9dFDQu5X7NnwTh39igZJ5Po+SeJSlFoPgF+3s7nVvRdJHmLHgHaRwCBBQVIOiwIyO0IILCwwPWFa6CCAgTMtQIa9aJJ2aOE2TtzjhTHZc4Jl/A2eW3WExalmEMCMckih0aDUBBAYB4Bkg7zqHEPAgikInCy9j2VqqikAIEL1Wq9gGadbnL4mmbN/JyjxHGZc8IluM1O0ZdZOKsJilLEMQGtmFnm2JAQDgIIzChA0mFGMIojgEB6AlqbWnq1UVPeAppjId8lZz+Hd01meSaOdmcpTtnkAnE/YgZOci7HSjKzzLEBIRwEEJhRgKTDjGAURwCBFAXYRDJFzPyrkqTRWv6tut0i+zksNj7G6M5iNXD3WAHDpr1jbTy4MDx5xINICREBBBB4V4Ckw7smPIMAAjkJyBsM3rTmZJ1FM2wC+q6q5ijRd1FmeOb4+AUzHWbwmqWoZvPXWbicK6sjZgY6NygEhAACiQVIOiSmoiACCKQvwIZ76ZtSY1ECJ/s5GNbMzz8AnFwxv930O5mZNN3I5RLMVHF5dIgNAQSmCJB0mALEZQQQQACBcQJsbnZWRlf6m2e/5+sZBYzqzHgHxWcRMIqTgmbxoiwCCCCAQGoCJB1So6QiBBCYQ4BfgudAc+cWPtU/OxayXIikw1mQWb/WmqUVs5pRvjQCOlL10nSWjiKAQHACJB2CG1I6hAACCCCQv8DamlLsML+Iu9GGpMMigBPuff64Jq9PHggggAACCBQjQNKhGHdaRQABBBAISGCp2tsMqDuFdOVVr0rSISP56qveRkZVUy0CCCCAAAJTBUg6TCWiAAIIIIDAeAH7CT8PFTP1ecFXwZ5SBwcL1sHtCIQrYFQt3M7RMwQQCF2ApEPoI0z/EEAAgQwFLlT5BHXAq9nPYZGXmVHs57CIH/eWQuBKKXpJJxFAIEgBkg5BDiudQgABBPIR0P1K6T+dvlCt1mU/B47KXOAlF7GfwwJ63IoAAggggIDbAiQd3B4fokMAAQScFjg+frHrdIA5BKc5tWJh5Vip9sKVUAECCCCAAAIIOClA0sHJYSEoBBBAAAF/BMymP7G6GemrXq/tZmREhQACCCCAAAKLCpB0WFSQ+xFAAAEESiuwtHR5QzrPWuuFXgH66UK3czMCpRDg30kphplOIhCoAEmHQAeWbiHghwC/RPkxTkQ5ViCKG2OvcSGZgDGlX6KTDGr+Un3D3ivz6zlypzYHjkRCGAgggMDMAiQdZibjBgQQSE+AX6LSsyyiJpJGsoEkSysWfelF7OewKOG0+//08X9I7ExD4joCCCCAQGYCJB0yo6ViBBCYJiDH5PHJzTQkp6+XO2nE0oqUXpz9Cm+IU6KkmoAFDP+/DHh06RoCwQuQdAh+iOkgAu4KcEyeu2OTKDKjOonKhVqIpRUpjKzucgJKCozJqthLVoxSLgoYliG5OCzEhAACCQVIOiSEohgCCKQvYFTJ37SmT5prjToq+/ixtGLRF5z8DGgvWgf3JxTQZf/3mtDJ0WI6YqaDo0NDWAggkECApEMCJIoggEA2AiQdsnHNq9a4xG8YWVqRzqtMl/g1lI5g8lpM2WcmJadysqSO2XDVyYEhKAQQSCRA0iERE4UQQCALgVe9XjuLeqkzH4ELZZ6pwtKKdF5kcdROpyJqmSpA0mEqkdMFLjBTxenxITgEEJgoQNJhIg8XEUAgewFOQMjeOIsWdLfX63WyqNmTOhuexOlwmOznkOfgyC987Tzbo630BGRGUPfijf1OejVSEwIIIJCvAEmHfL1pDQEEzguwOdZ5ES++L/Na/OXlS3JMpln1YqAcDrLMr6EihqV3ocopIUXAp9Cm0YqxS8GRKhBAoDgBkg7F2dMyAghYgYhP33x8IZR5Lb5RsSQdeCwqUObX0KJ289z//o3Ogdy3N8+93FOsgIn5/2SxI0DrCCCwqABJh0UFuR8BBBYSqDDldyG/wm4u7Vr8tTWl1e3C3ENquLSvoeIGkdklxdkv0jJLYxbR414EEHBBgKSDC6NADAiUWOBkXwD2dfDrJVDetfhLK4cNv8bK1WjL+xoqckQizSfmRfrP2/bFj/bb897LfQgggIALAiQdXBgFYkAAgTYEHgkYs+NRtGmH2ki7wlLWV+7XUGFD3ouqZf63W5j7Qg1r9WSh+7kZAQQQcECApIMDg0AICJReII5apTfwCECrqJRvXJaWLm/IBpLXPBoqd0NlL5dCxuZkXwdmlhWCP3ejupQ/b+fm4kYEEHBSgKSDk8NCUAiUS+D4+MWu9JgNzrwYdt09OvqjnL8E6/6WF0PkQZDs5VLgIGnVKrB1mp5RQEelnlk2oxbFEUDAVQGSDq6ODHEhUDIBzS/Cfox4aafFs4Fkei9Q/fRkL5f0aqSm5AK8iU1uVXxJ/fTijf1O8XEQAQIIILCYAEmHxfy4GwEEUhKQH0atlKqimiwFTGU7y+pdrZsNJFMdmXaqtVHZTAInb2JZYjETWlGFScYXJU+7CCCQsgBJh5RBqQ4BBOYTGH7yyYZZ8/HldJd+OlwKk1N7LjVjWFqR1nA4vIfLy1/W62l10+V6tDalTB66PCajYjuMVlqjnuc5BBBAwDcBkg6+jRjxIhCwgDYRvwi7PL4lfaOyvHxpU4blistD409sbh+VGWvVePl4veaP53yR2lMstFLd+e7mrjwEjFIPTjb+zKM12kAAAQSyFSDpkK0vtSOAwAwCww0K2VByBrMci+4d93qtHNtzpimjY2Y5pDUaju8JIr8UbapY1dPqrqv12DezRumWq/ERl1KRYckhrwMEEAhHgKRDOGNJTxAIQ0CrZhgdCasXZd3os1qt1mQkr4c1msX1xuXjVv/3z79uyKfLq7EJP+lgXwG6whKL4v4lTGlZqycXP9pvTynFZQQQQMAbAZIO3gwVgSJQDoHhp+nMdnBquOWYzF61lEtf+jFJsDRfikdHy+0060uzLq37dhmNkl+MBn+nWbeLddkNJe0UfhdjK3tMhqWGZX8J0H8EghMg6RDckNIhBAIQYLaDa4PYVOrgwLWgso5nMMtBq9tZt1OW+mU6/0OXX0da60Gywc52KMuGklGFpJp7//7008s3/7vjXlxEhAACCMwvQNJhfjvuRACBjASGsx2eZFQ91c4msHd8+HJ7tlvCKB0r1QijJ270Qk5McPaN1PPHtTWlzLVTKTNMQJx+H+rfzHZwb2S14aQc90aFiBBAYFEBkg6LCnI/AghkImCY7ZCJ66yVyokiW7PeE0b5tTVjdEn7ns0IHveqziYdqnFv8+1em3Pfv301pO/sbAfNSRZuDCl7ObgxDkSBAAKpC5B0SJ2UChFAIA2BV71eWxnWG6dhOW8ddjr88ESReavw9r7lak8SDmbV2w44FrjrSyskwXQ+yXDFbizpGGMm4djZDrJ55nYmlVPpTAJxvyI/d3gggAAC4QmQdAhvTOkRAsEIHB9V5RcwzVnyhYyo7l7QZZ3myyyHtF9yLi+tOOmruXW+z1EUN84/F+r3RxcGG8WygW+hA6y/+9PH/9ktNAQaRwABBDISIOmQESzVIoBAGgIHB9roRho1UcfMAs1er9eZ+a4AbmCWQ/qD6PLSiheP/rI5qsdamcao50N87v0bHflZyx4mBY7t3mFlpVlg+zSNAAIIZCpA0iFTXipHAIFFBQbT+1lmsSjjTPfbqfBl3TxSKWY5zPRiSVDY9aUVSsUjkw72FItxCYkE3fauyMWP9tsys+w77wIPIGCb8LGJnwC6QhcQQACBkQIkHUay8CQCCLgkMFxm8dSlmMKNRXdfHa40wu3f5J4xy2GyzzxXXV9aIb8IjUw62L6WabaD7e/w03aWWViM3B76u5OET24N0hACCCCQuwBJh9zJaRABBGYXODhQcdRgf4fZ5Wa+I47qSol3KR/Mcshi2F1eWvHyl/W6ndEwvt/m1svH67Xx18O6Yj9tj+PK2CRMWL11oTf6KcsqXBgHYkAAgawFSDpkLUz9CCCQisDx8YtdVdqNDVMhnF6JVncGztNLBlmCWQ4ZDOtgaZS7SSyj3zm14h2E+FW59joYbGao9RfvQPBEqgL2mNJYkuksq0iVlcoQQMBRAZIOjg4MYSGAwLsCx71eS2t1790rPLOwgLw5tL4L1+NtBcxyyGLotIp2sqg3vTrN1E/15WdOI732/Kjp0oe/bcsMkAd+ROtnlLGKGpxW4efYETUCCMwuQNJhdjPuQACBAgWOer2mYmPJdEfAJhyOeo10K/WrNmY5ZDFeujvYCDaLqlOo83///OuGVHMlQVVXXv663khQLqgiR5XBkcXspZPBqBqj7l2++V/HE3IZdJwqEUCgtAIkHUo79HQcAX8FBm+QSTykNID66clGnSlV52E11Wq1Jm8CvvIwdNdDbrkcYBTFjaTxyaf+icsmrdP1cnbav+w3UJe9dEg8pDhYdgbJ5Y/2mylWSVUIIICA8wIkHZwfIgJEAIFRAiQeRqnM+pwkHA7tmwp319zP2qN5yvdj1ZznPu6ZIhBHrSklCr48fWnF6wCNum43nXz9fUm+ONlYMmrY/QdK0uVMuzlIONzcb2TaCJUjgAACDgqQdHBwUAgJAQSSCZB4SOY0uhQJB+tyoVqty7mIt0cb8ez8AvL6spu/OvqYYWnF6x7IppNbr78p0Rd234F+XKmTeFhs0Ek4LObH3Qgg4LcASQe/x4/oESi9AImHOV4Cdg8HZjgM4LRhlsMcr6Dpt2izPb1QcSVmWVrxJspyHZ/5pt9KkXg4qzH71yQcZjfjDgQQCEuApENY40lvECilwCDxoPR3pez8rJ1+vWlkuZdUWLalarUhf123X/NIU0B3j3tVxzfJm2FpxRmauF/eJNVp4kE49s6Q8OUUARIOU4C4jAACpRAg6VCKYaaTCIQvcHz4ckumyd8Jv6eL9FB/cZKgWaSOUO5dW5NTUJqh9MapfhgjCQd3k1rzLK049ZUlBrdfPl6vnX5ftr9t4uGwUt1gc8lkI0/CIZkTpRBAIHwBkg7hjzE9RKA0Ase9XkvFlQ+kw3wS99ao667R6oYkZpye8v5WyBl/c3JEZqLjEjOOJMDqTcXp19l8SyvejFOZZztYhdNTLewb6jcqfHVeQEsS/DKbRp5n4XsEECipgCTteSCAAAKhCaytXVg5bGllboXWszn68+T4sLrp8ifPc/RpoVvsEZl9o54tVAk3jxGwG5S+lE/C3X388Wi9I9FdWSRCXVFXL97Yt/WU+vHil/WmvLn+qtQI5zovv1h37cabdlbIuUt8iwACCJRWgJkOpR16Oo5AyAIHB68OX26eLLfQJT3qzfZbllMc9uokHN5+rUvCofX2M3yXmoDjG0gOj71cKOFgrUxfOz2bI7XxnFLR5Y/2m7IZ6w37RntK0XJc1upJr1KtkXAox3DTSwQQSC5A0iG5FSURQMAzAbvcoqLNhlH6oWehLxruE9tvllO8y8jmke+apPeM+xtIxlo10umvnGTxy3o9nbr8ruXiR/tt+0Zbkpxl+zn7euAGSRetv7j04X7dLj95fYEvEEAAAQQGAiQdeCEggEDQAr1er2NnPWgT/V06uhd0Z23/ZB2xnd1g+x14X+font08kk+o54BLekvL9Vk18kvPZtLOTCtnIjYiPTWyb7Qv3fxt06jo76Wb9SCzG1RFbVz68Ddmv5y+IPgbAQQQOCdA0uEcCN8igECYAkdHf+zIm/GarD++J5/IBTYVWHdtv2Tvho3BZpphDuHCvbL7fMjE+NWFK6KCkQIyu8bpN10vHv1F3hSr9MbfqOu2zpEYJX3y8s3/7gxnPXwXOoFNrsjP3Tt2dgP7e4Q+2vQPAQQWFZCfmTwQQACBsgmsrdnTC4zRW36/CbXJBrN91KvKmz13jyh04dW1vHxp0+j4ZxdiCTEGu4RpsI+Kw53749Gfd+Tf+62UQ9y7dHO/lnKdQVRnjxY1seyfIsmZIDo07IRNNsRGbR9dqG6zlCKkkaUvCCCQpQBJhyx1qRsBBBwXWFtbqvY25ZfipgS68OZyOXZ2T2ZrbB8frrRINiRRl3FeOez4nWBK0s/iytgjWV/1eu3iIpjc8vPHtbWVfu/55FLzXTVG3bMbKs53d/h32b0vBktRPE8+kGwI/7VKDxFAIDsBkg7Z2VIzAgh4JHChWq3rWDaZ0+q2q2HbT5Mjo1t2qYirMboY14WVizscn5rlyLh/TObLX9cbkhy4n4WCfTNq1/QzxX6y7v/++dcNHfW3xMvZn7GjekCyYZQKzyGAAAKzCZB0mM2L0gggELzAyewHWXqx6cIbVZtokCUUO8e9qiQaWEIx68uPZRWzis1R3m5eKifFzHFnbrfI0opdmelyLbsG9UO7kWJ29YdTs112Eb9SDdkPoSG9cneGmWwQKb8kty5+uN8KR5+eIIAAAsUIkHQoxp1WEUDAE4HBDAhJQMgblg0J+Xr2Yeun0kZbG91mRsOi2iyrWFQwwf17doPWBOUKKzLYW6CvnmUdgDbqhj0+Mut2Qqrfzn6IorghP19twsaBBIT8/NWqpSOzw8yVkF5p9AUBBIoWIOlQ9AjQPgIIeCUwSEIoVZMfnjWZrl2XvRXW5vsE1SYXzIHcvysAHaPNrstr4r0apGGwSyvVtnyZQ6LIR52UYvZjlsO2/Fv7PKUeT6pm77BS3WBzwUlE468NEhCVuD5IQOS3/8OekSRvpFVbRapNomH8+HAFAQQQWESApMMietyLAAIInBGoVqu1V5KMOPPUW1/qfuXg+PiFTTLwyFhgaeXilrx5+TbjZkpeve7KZqY115f9/PFovSMDldOn6Po7WWYhrz0eiwrYJESl0t+QpW4bSstMMzP42brAOA5mkXWMMbtKR7tRJd4lybDoKHE/AgggkEyApEMyJ0ohgAACCHgisLR0eUNF/X95Eq63Ycqa/HtHvV7T5Q68ePQX2Zsl36NSWWaR7SvCLpdRr84kdyNVi+Mz39uEgokPTqNgycupBH8jgAACxQmQdCjOnpYRQAABBFIXsPs49OxskgU+EU09qAAr9GOWw4tH6y35Red2zgPAMoucwWkOAQQQQMBtgcjt8IgOAQQQQACB5AIXVg5bUpqEQ3KyuUrKiSrbri+reP64tlZAwsF6XlnpHzbnguUmBBBAAAEEAhQg6RDgoNIlBBBAoIwCdh8HF445Dd9ed496VUk6uP1YiQ8bxUVoPn/5y3q9uPZpGQEEEEAAAXcESDq4MxZEggACCCAwp8BgHwc2jpxTb7bbfJjlMOiRMVuz9Szd0kaOXrSzLdKtldoQQAABBBDwT4Ckg39jRsQIIIAAAm8JrK2pKG6/9RTfZCTgxywHe/KBABS9zMYus2hlNBBUiwACCCCAgDcCJB28GSoCRQABBBAYJbC0ctiW4zFXR13juXQFfJnloKN+obMc3qibWy9/XW+8+Z6vEEAAAQQQKJ8Ap1eUb8zpMQIIIBCMwNJytaV07qcTBOM3W0f8OLHCLmmo9nsdo5QTiSj5Ravbjyv1P338n93ZvCmNAAIIIIBAGALMdAhjHOkFAgggUDoBu3EkCYdch73p+okVVqMa9zZdSTjYeGwsURSzv4PF4IEAAgggUEoBkg6lHHY6jQACCPgtsLx8aVPezn3rdy+8in7v+PDltg8RG6Oa7sVprrG/g3ujQkQIIIAAAvkIkHTIx5lWEEAAAQRSErAnVRhtWilVRzVJBLSLb+TfDXx4TOWVd6+48Iy59cevf3ZkrwkXPIgBAQQQQKAsAiQdyjLS9BMBBBAIQKBardZOTqpg48j8hlM/Pe71Wvm1N39LsVaN+e/O4U5jvh0mRnJojCYQQAABBBBwQ4CkgxvjQBQIIIAAAlMF1tb6Ru9wUsVUqFQLyKwSLz6dtxtIyqaNt1PtfBaVabUzPNIzi9qpEwEEEEAAAecESDo4NyQEhAACCCDwrsDa2vBozGvvXuOZDAWevOr12hnWn1rVy696XiRH2FgytSGnIgQQQAABTwRIOngyUISJAAIIlFngwsphS2Y4kHDI+UVQcX25whkP7VGs9rW8Evdk1g4PBBBAAAEEwhcg6RD+GNNDBBBAwGuBpeVqSytzy+tOeBm8/q7X63V8CP3lr+sNidPRDSTHCBp1/cWj9daYqzyNAAIIIIBAMAIkHYIZSjqCAAIIhCdgEw5Ke7BOPzh63T0+XGn60i1ZstDwJdazcdo9KDjR4qwIXyOAAAIIhChA0iHEUaVPCCCAQAACJBwKHMTB5pEHBwVGkLjpwaaMMmsg8Q2uFbQnWpzM1HAtMuJBAAEEEEAgFQGSDqkwUgkCCCCAQJoCJBzS1Jy1Ln+OyLQ901Hfiw0kJ42CMeo+iYdJQlxDAAEEEPBZQGb28UAAAQQQQMAdARIOBY9FXPng+PjFbsFRJGreHpO50u89T1TY8ULyC1m3H1fqf/r4P17YO85JeAgggAACDgkw08GhwSAUBBBAoOwCJByKfgXo73xJOFgpX47JTDKqsi/FaiXqtwfLRZLcQBkEEEAAAQQ8ESDp4MlAESYCCCAQugAJh6JH2K/NI62WX8dkTh9fEg/TjSiBAAIIIOCfAEkH/8aMiBFAAIHABNbWLqxc3OGUimKHVRvdUMqPzSOtlJfHZCYYYhIPCZAoggACCCDglQB7Ong1XASLAAIIhCawtra0cthWylwLrWee9efJ8WGv7lPMfzxa70i8V3yKeZZY2eNhFi3KIoAAAgi4LMBMB5dHh9gQQACBgAWq1WqNhIMLA6y7Fa0aLkSSNIaXv6zXpWywCQfrYNjjwTLwQAABBBAIQICkQwCDSBcQQAAB3wSWli5v9I2WXfqZ4eDA2DV7vV7HgTgSh2Ai1Uxc2OOCJB48HjxCRwABBBB4LcDyitcUfIEAAgggkIfA8vKlTaNNSxIOq3m0RxsTBbxbVmFPd4ii/r8m9iqwiyy1CGxA6Q4CCCBQMgFmOpRswOkuAgggUKTA0srFLaPjn0k4FDkKp237t6zCRq6j/tZpD8ryt53xYBMtw80zy9Jt+okAAgggEIgASYdABpJuIIAAAm4LyIaRy9WWJBu+dTvOUkXn3bKKl4/Xa/Kp/+1SjdKZzhqj7pN4OAPClwgggAACXgiQdPBimAgSAQQQ8Ffg9YaRurxvFh0cPVlW8XLbwbgmhhT3y7GXwyQEm3h48ct6c1IZriGAAAIIIOCSAHs6uDQaxIIAAggEJnChWq1ro3dYTuHSwNplFWbDt80jnz+urVX7vY5dauCSZlGxiMODyzf3G0W1T7sIIIAAAggkFWCmQ1IpyiGAAAIIzCSwXK02tVGPSTjMxJZ5YUkCNXxLOFiU5Ve9LRIOb14edpnJH4/+vGuTMW+e5SsEEEAAAQTcE2Cmg3tjQkQIIICA5wKyf8NKT2Y3qOuedyS88I16cHzUa/jWMWY5TBox/TSOo8afPv7P7qRSXEMAAQQQQKAoAWY6FCVPuwgggECAAnY5xdLKYUe6RsLBvfHdOz6qbrkX1vSImOUwychcq0T99otHf9mcVIprCCCAAAIIFCVA0qEoedpFAAEEAhOQ4zC3WU7h8KDGFXlTenDgcIQjQ7OzHCKtvEyWjOxQBk/aZSdaxT//8eufccrAlyoRQAABBBYTIOmwmB93I4AAAqUXWFq6vCEJh13Zu+Hz0mM4C6C/OD5+IWPk34NZDjOMmTHfyj4PO+zzMIMZRRFAAAEEMhdgT4fMiWkAAQQQCFfAbhYpR/h9FW4P/e+ZUfrhq8OXmz72hL0c5h019nmYV477EEAAAQTSF2CmQ/qm1IgAAggEL3A6u4GEg/NDvffqcKXhfJRjAmSWwxiYqU+f7PPw8tf1xtSiFEAAAQQQQCBjAWY6ZAxM9QgggEBYAvZkisMmSyk8GdW48oGvyyqY5ZDOa0z2e3hwVKluvX+jc5BOjdSCAAIIIIDAbALMdJjNi9IIIIBAaQWWly9tylGY7N3gzSvA330cLDGzHNJ5ocmnS7dX+r3d//3zrxvp1EgtCCCAAAIIzCbATIfZvCiNAAIIlE6gWq3W+ka1pOMcg+nL6Bv14Pio1/Al3PNxMsvhvEg638tyqHuXP9pvplMbtSCAAAIIIJBMgJkOyZwohQACCJRQYG3NbhQpCYdn0nkSDt68AvTT46PqljfhjgiUWQ4jUFJ4Smv1lZxusfvy8XotheqoAgEEEEAAgUQCzHRIxEQhBBBAoFwCcgSmfdPalL0bVsvVc997q7sVbTZ6vV7H154wyyH7kZNf/rpG6+alD3/bzr41WkAAAQQQKLsAMx3K/gqg/wgggMAZgaVqtbG0Uu1IsuFbEg5nYHz5Mo7qPiccLDOzHLJ/sRmlVpUx3/7x63qbWQ/Ze9MCAgggUHYBkg5lfwXQfwQQQEAEXicbjLov314BxUMBre74elLFqbZ9Axxp5fXSkNO+ePG3UddNXz178ct604t4CRIBBBBAwEsBkg5eDhtBI4AAAukIkGxIx7HwWuzGkb1eq/A4Fgwg7qvm4FP4Bevh9tkEXu/18Mt6fbY7KY0AAggggMB0AfZ0mG5ECQQQQCA4AZtsUMbu2cCsBt8H1yj98NXhy03f+2FnOdhP3X3vh+/xS9LnwVGluvX+jc6B730hfgQQQAABNwSY6eDGOBAFAgggkIPAyWkUsknkgSQc7kuDV3JolCYyFdBPXx2uNDJtIqfKTV+zqWFO1pOakU+jblf7vc4fv/6ZZS6ToLiGAAIIIJBYgJkOiakoiAACCPgpsLR0eUPp/pbS6rafPSDq0QK6e3y4UlPqwPtPpF/KtH6j1ePR/eTZ4gT0U23M1sWP9tvFxUDLCCCAAAK+C5B08H0EiR8BBBAYKbC2trRy2JBL8sdcG1mEJz0W0F0lJ1X4vnHk6QD88ejPO/I6vXX6PX+7JqAf6ookH27sd1yLjHgQQAABBNwXIOng/hgRIQIIIJBYYHn50masTUPzBi6xmZcF48oHoSQcrP+LR3/Z1Cr+2cuxKFXQ+rvDykqT/R5KNeh0FgEEEFhYgKTDwoRUgAACCBQpIPs0LB/VjYo3ldab8mnxapHR0HYOAvZozABOqjgv9cev623Za+T6+ef53i0B+cWxGxu1fXShuk3ywa2xIRoEEEDAVQGSDq6ODHEhgAACYwQGezREcV0SDJJk4E3aGKYwnw404WAHy55eofpq1yhF4syDVy/JBw8GiRARQAABRwRIOjgyEISBAAIIJBGwR10ao2UqOuvfk3gFVSbghMPpOA1OTDDm29Pv+dsLgT2tVfPih/stL6IlSAQQQACB3AVIOuROToMIIIBAOgJ2/wajTX044+FKOrVSi5sC+rvjw5dbbsaWblQss0jXM8fa9oxRLZZd5ChOUwgggIAnAiQdPBkowkQAAQQmCbxZcsFpFZOcvLxm1IPjo17Dy9jnCJplFnOgOXQLyy4cGgxCQQABBBwRIOngyEAQBgIIIJCegByXWe1tsgwjPdHCaipZwuHUmWUWpxL+/m2TD0bplhy1uc1Rm/6OI5EjgAACaQiQdEhDkToQQAABZwVOEhAqVnVOt3B2kEYHVtKEwykGyyxOJfz/WzYHfRDJ0ouLH+23/e8NPUAAAQQQmFWApMOsYpRHAAEEPBYY7APB8Zruj2DJEw52gFhm4f7LdPYI9VOtZeYDm07OTscdCCCAgMcCJB08HjxCRwABBBYRIAGxiF6G95JweI378td1Oa1F3X/9BF8EIcDSiyCGkU4ggAACiQVIOiSmoiACCCAQrsCbBIS6HW4vPegZCYd3BumPR3/ekRNabr1zgScCEdAPZfbDDrMfAhlOuoEAAgiMECDpMAKFpxBAAIHyCrAJZWFjT8JhJP3zx7W1ar/XkX0BVkcW4MkgBE5nP8Rx1PrTx//ZDaJTdAIBBBBAYCBA0oEXAgIIIIDAGAFJQKwcNuSi/DHXxhTi6VQE9BfHhy+3U6kqwEpe/rJeN1o9DrBrdGmkgH6qtGodRiut9290DkYW4UkEEEAAAW8ESDp4M1QEigACCBQnUK1Wa32jtyT5sClRXCkukgBb1urOca/XCrBnqXbpxS/rTa3VV6lWSmUeCJwsv+hF1R0SEB4MFyEigAACIwRIOoxA4SkEEEAAgfECF6rVuo5l9oPWkoAwTHkfTzX9CgmH6UZnSnCM5hmMUn5JAqKUw06nEUDAewGSDt4PIR1AAAEEihI42f9BncyAYPnFTMOgu0abzVe9Xnum20pemGM0S/4CeKv7JCDe4uAbBBBAwGEBkg4ODw6hIYAAAr4IvFl+Mdj/gdkPEwdOd1Uc1Y+PX+xOLMbFkQLs7zCSpeRPnuwBEfejNptQlvylQPcRQMBJAZIOTg4LQSGAAAL+CixVqw1lbPJBXfe3F1lFrp9WZIZDr9frZNVCGeplf4cyjPLcfdwzSrWVinaOKstt9oGY25EbEUAAgdQESDqkRklFCCCAAAJnBZj9cFbDfq2fHh+u1JU6ODh/he9nF2B/h9nNSnmHVk9MrNqRJCIufrTfLqUBnUYAAQQKFiDpUPAA0DwCCCBQBoHSz34w6sHxUa9RhrHOq4/PH9fWVvo9u0TlSl5t0k4AAiQhAhhEuoAAAr4JkHTwbcSIFwEEEPBYYGnp8obS/a1ynXyhvzg+fLnt8bA5G/r//vnXjUrUb8t0evYRcXaUHA9smIRQOtplOYbjY0V4CCDgrQBJB2+HjsARQAABnwXk5IuVw4YcubklvQj0k2rd1UY3jo7+2PF5pFyP/eWv6w1j1H3X4yQ+XwT0U6PMrtZ6V8dmlyUZvowbcSKAgMsCJB1cHh1iQwABBEogsLx8adPo2CYfrgfU3T0VVzY5oSKfEWVjyXycy9sKiYjyjj09RwCBNARIOqShSB0IIIAAAgsLDDaejFVTaXV74cqKreDJ8WF1kw0j8x2EPx79WWaUmFv5tkprJRbYk59VHbtJpV2aEZn4gFkRJX410HUEEJgoQNJhIg8XEUAAAQTyF1hbW672tozRMvvBeLVWX2t176jXa+ZvRosnG0setuU1cw0NBAoUeJ2M0JE+sEs01AXVuXhjv1NgTDSNAAIIFCpA0qFQfhpHAAEEEJgkMDz1oillrkwqV/w19m8ofgyUsomHar/XMWws6cJwEMO7AoOEhDJ61xhzEEWqo2L5Q1LiXSmeQQCBoARIOgQ1nHQGAQQQCFPA7SM39dOKNpu9Xq8Tpr5fveJEC7/Gi2jPCchpGvYZ2Ry1o+wf+xgu3yA5MdDgPwgg4KEASQcPB42QEUAAgbIKXKhW69rIvg/ObDqpv5PjMO0mmDwcEnjx6C+bWsU/OxQSoSCwsIAkIu5d/mi/uXBFVIAAAgjkLBDl3B7NIYAAAgggMLfAq16vfXzYq8vJEB/Ip4AP5q5o4Rvtcoro7yQcFobMpILLN/+7I/tr3MmkcipFAAEEEEAAgZkESDrMxEVhBBBAAAEXBOxRlMdHvUZFq6sFJB+eyHKKjaOjP+S0BB6uClz8cL9lPxl2NT7iQgABBBBAoCwCJB3KMtL0EwEEEAhQwO6jkGfywZ5OYWdasH+DHy8mOxVdNpUscEaMH05EiQACCCCAQJYCJB2y1KVuBBBAAIFcBHJIPuzZJR0ch5nLcKbayOWb+w0SD6mSUhkCCCCAAAIzCeiZSlMYAQQQSFGg+4+/NW11cnRY3f6d5KG1bo8qF8fx289fULvvNzsHo8ryXPgC1Wq11o9lw0mtbi/eW7tZ5EpTqQNeT4tjFlbDH4/+LMthzK3CAqBhBBYUYCPJBQG5HQEEChMg6VAYPQ0jgED37lX5ADKXx5401LEtSdJiV/46UCY+iI2yX6v3v+m07d88whNYMPmwZ7Rq2M0rw5MpX4+eP66trfQPZSzNtfL1nh6HIEDSIYRRpA8IlFOApEM5x51eI+CEQI5Jh0T9lR+IT2NJSJwmJgazJy6oA5kxMUhOJKqEQk4K2OTDK6O3deJPupnd4ORALhgUiYcFAbm9UAGSDoXy0zgCCCwgQNJhATxuRQCBxQRcSzpM6c1gtsQgIWHizmCWBEs4ppC5d/lCtVrXRpZdKHV9THTMbhgDE8rTJB5CGcny9YOkQ/nGnB4jEIoASYdQRpJ+IOChgGdJh3HCXVm6sWuTEdrEu32jOizXGEflzvPD5ENLIrpyGpU9meKoV91m74ZTkXD/JvEQ7tiG3DOSDiGPLn1DIGwBkg5hjy+9Q8BpgUCSDiON7VIN+QVxV2mza2dFkIgYyVT4k0srF7ckaVTXcdQ8Pn7BMprCRyS/AEg85GdNS+kIkHRIx5FaEEAgfwGSDvmb0yICCAwFQk46jBpkeXP75PWMiIpqy14RnVHleA4BBPIRIPGQjzOtpCNA0iEdR2pBAIH8BS7k3yQtIoAAAuUUkCzvdTkf9LqRcxyjvlKSdNkTCfl03bTjkyQEn7SX86VBrwsSeP9G50ASD3VOtShoAGgWAQQQQKAUAiQdSjHMdBIBBBwVsPsJyB99a5iE6Mr3bZIQjo4WYQUpQOIhyGGlUwgggAACDgmQdHBoMAgFAQRKL7AqArfeSkIYtaO1afdZjlH6FwcA2QmcJh6W+z05VlXdzq4lakYAAQQQQKB8AiQdyjfm9BgBBPwRWJWVGLdlOcZtOxPi97tXnxqt23Ec77AxpT+DSKR+CNjEg0TaePFoXf7ZkXjwY9SIEgEEEEDABwGSDj6MEjEigAACIiAbUV6TPSGuRVp/LvtBdOWJ01kQO7IppX3DxAMBBBYUuHxzn8TDgobcjgACCCCAwFmB6Ow3fI0AAggg4I3A6SyI+1FfP5ckxM7vd2uN581azZseECgCjgrYxIPS+gtHwyMsBBBAAAEEvBJgpoNXw0WwCCCAwFiBW7IMY7Ah5WAZhjItORHDzoDojL2DCwggMFbg0oe/bb/8df1Ajim8P7YQFxBAAAEEEEBgqgAzHaYSUQABBBDwS2CwDEPpb2UGxDNJQOwOZ0Cs+dULokWgeIGLH+63tFE3ZI8He7IMDwQQQAABBBCYQ4Ckwxxo3IIAAgj4ImATEDID4q0lGL7ETpwIuCBw8aP9dj+u1CWWPRfiIQYEEEAAAQR8EyDp4NuIES8CCCAwv4BdgnFf9n846H55tfX8y1p9/qq4E4HyCPzp4//sHlaqG3Kc7dPy9JqeIoAAAgggkI4ASYd0HKkFAQQQ8ElgsAmlnILxWBIQne7d2hYbUPo0fMRahIA9UvOwslKX2UMPimifNhFAAAEEEPBVgKSDryNH3AgggEA6Alfk09vB/g+DEzC+rG2mUy21IBCegE082JMtZHPJe+H1jh4hgAACCCCQjQBJh2xcqRUBBBDwUeCW0frnweyHf/ytKbMf2HzSx1Ek5swFLn+03zQq+rtmg8nMrWkAAQQQQMB/AZIO/o8hPUAAAQTSFriijPlKTr94Ptj7oVmTtew8EEDgrMDlm//dOdlgkn0ezrrwNQIIIIAAAucFSDqcF+F7BBBAAIE3AlrdluTDvw7uXm3bozffXOArBBA42WBypS5LlB6igQACCCCAAAKjBUg6jHbhWQQQQACBMwIyjfz68OSL040nWbC93VwAAEAASURBVHpxxocvyytg93m4dPO3TaX1F+VVoOcIIIAAAgiMFyDpMN6GKwgggAAC7wqcbjzZ6bLvw7s6PFNagUsf/ratjbrBPg+lfQnQcQQQQACBMQIkHcbA8DQCCCCAwESB1XP7PtQmluYiAiUQuPjRfrtXqdaUVk9K0F26iAACCCCAQCIBkg6JmCiEAAIIIDBW4GTfh2fDTSdrY8txAYESCAyWW3y4X2e5RQkGmy4igAACCCQSIOmQiIlCCCCAAAJTBUg+TCWiQHkE7HKLOK58ID3eK0+v6SkCCCCAAALvCpB0eNeEZxBAAAEEFhEg+bCIHvcGJHByukV1wyj1IKBu0RUEEEAAAQRmEiDpMBMXhRFAAAEEEgu8nXzgtIvEcBQMScAut7h8c79hVPR3NpkMaWTpCwIIIIBAUgGSDkmlKIcAAgggMJ/ASfKB0y7m0+OuQAQu3/zvzmCTSaUfBtIluoEAAggggEAiAZIOiZgohAACCCCwoMDpaRed7t3a1oJ1cTsCXgoMNpm8+dsmsx68HD6CRgABBBCYU4Ckw5xw3IYAAgggMJfAqlL62+7dq53nX9bqc9XATQh4LsCsB88HkPARQAABBGYSIOkwExeFEUAAAQRSErgSaf344O7V9vNmrZZSnVSDgDcCzHrwZqgIFAEEEEBgQQGSDgsCcjsCCCCAwPwCsrHe9aivn3X/8bdtST6w2eT8lNzpqcCZWQ/fedoFwkYAAQQQQGCiAEmHiTxcRAABBBDIRcCYzyX50Pn9bq2RS3s0goBDAsNZD1vaqBuy/OipQ6ERCgIIIIAAAgsLkHRYmJAKEEAAAQRSElg1St8fLrnYSKlOqkHAG4GLH+23L938bcMYdY/jNb0ZNgJFAAEEEJgiQNJhChCXEUAAAQTyFRguufiXLLlosuQiX3tac0Pg8kf7TVVRknjjeE03RoQoEEAAAQQWESDpsIge9yKAAAIIZCdgzFey5GKXUy6yI6ZmdwUu3tjvyKyHTZZcuDtGRIYAAgggkEyApEMyJ0ohgAACCBQjMDjlovvl1RazHooZAFotVuB0yYXW6g5LLoodC1pHAAEEEJhPgKTDfG7chQACCCCQp4BWtwcbTX5Z28yzWdpCwBWBix/ut3qVas3u9+BKTMSBAAIIIIBAEgGSDkmUKIMAAggg4ILAqtH65+7dqzvMenBhOIghbwF7yoXd70FX1FWj1IO826c9BBBAAAEE5hEg6TCPGvcggAACCBQpcMvOemCvhyKHgLaLFLD7PVy+ud+I48oHSqsnRcZC2wgggAACCEwTIOkwTYjrCCCAAAIuCqxGWj+WEy62mfXg4vAQUx4Cf/r4P7uXPtyvDzabJPmQBzltIIAAAgjMIUDSYQ40bkEAAQQQcETAmM8rfd2WxIMcL8gDgXIKDDabJPlQzsGn1wgggIAHAiQdPBgkQkQAAQQQGC8ga9uvyXKLf3Xv1rbGl+IKAuELkHwIf4zpIQIIIOCjAEkHH0eNmBFAAAEERgjobw/uXrWzHtZGXOQpBEojQPKhNENNRxFAAAEvBEg6eDFMBIkAAgggkERAK3WdTSaTSFGmDAJvJR+UfliGPtNHBBBAAAH3BEg6uDcmRIQAAgggsJjAySaTLLdYTJG7gxEYJB9u/rbJUZvBDCkdQQABBLwSIOng1XARLAIIIIBAcgH9bffu1R2WWyQXo2TYAqdHbR5Wqu8bo+7JzKBu2D2mdwgggAACLgiQdHBhFIgBAQQQQCArgVuy3GKX0y2y4qVeHwXev9E5uPzRfvPizf01rdUdpfRTH/tBzAgggAACfgiQdPBjnIgSAQQQQGB+gSuSeGj/frfWmL8K7kQgTIGLH+63Lt38bUMbdUNOgnkQZi/pFQIIIIBAkQIkHYrUp20EEEAAgbwEVo3S97v/+Nt2Xg3SDgI+Cdh9Hy7f3G8M9n2QpRcS+55P8RMrAggggIC7AiQd3B0bIkMAAQQQSFvAmM/Z5yFtVOoLSWCw74Msvbh0c79mVPR3WXrBqRchDTB9QQABBAoQIOlQADpNIoAAAggUKnCrIsstZJ+HWqFR0DgCjgtcvvnfHVl6sWk3nlRafyHhMvvB8TEjPAQQQMBFAZIOLo4KMSGAAAIIZCoga9evscFkpsRUHpCA3Xjy0oe/bdvZD3Fc+UBmP3ynOfkioBGmKwgggEC2AiQdsvWldgQQQAABdwVW2WDS3cEhMjcF/vTxf3Zl9sOWPfnCLr+wm0+SgHBzrIgKAQQQcEWApIMrI0EcCCCAAAJFCAw2mORkiyLoadN3Abv8wm4+eZqAYP8H30eU+BFAAIFsBEg6ZONKrQgggAACHgkMTrb48mrLo5AJFQGnBM7u/8AMCKeGhmAQQACBwgUuFB4BASCAAAIIIOCCgFa3u19eVavfPGu4EA4xIOCjgN3/QeLeGf5RLx79ZVOpeFOWYNTluSvyhwcCCCCAQMkESDqUbMDpLgIIIIDABAFJPBzcvVozFbP5fnPw5mlCYS4hgMA0ATsDQsrYP+p///zrhtb9Ta21JCLMtWn3ch0BBBBAIAwBlleEMY70AgEEEEAgJQH5RPb68EjNtZSqpBoEEBABuwnl5Y/2m7IR5YY9hlNrdYeNKHlpIIAAAuELkHQIf4zpIQIIIIDAjAL2SE0SDzOiURyBGQTsMoyLH+63TjeiHBzFqfUXdjNKTsOYAZKiCCCAgAcCJB08GCRCRAABBBDIX4DEQ/7mrrb4008/bbgaWyhxDY7i/PC3bZkFsWlPw9BG3TBG3VNaPSEJEcoo0w8EECirgPwc54EAAggUI9C9e1Xe1/FAwG0B+R/l0/7JHg8dtyMlurQFvv/++3oURdtSr91/4Ekcx83PPvusnXY71DddwO4HEVXiujJ2Q0pjk0BXpt8VVgmbhLHLU8LqFb1BAIEyCJB0KMMo00cEHBUg6eDowBDWKIFuXDF12Vxyd9RFngtL4P79+2uHh4dN2fDw8xE9ezBMPnRGXOOpnARePl6vxf1oQ5l4Q0eqLjMjNiSLvZpT84U0Q9KhEHYaRQCBFARIOqSASBUIIDCfAEmH+dy4qzABEg+F0efX8HB2Q0tanPhJujHmu5WVleadO3cO8ouOliYJnE9EyKyImpSfOI6T6nPtGkkH10aEeBBAIKkASYekUpRDAIHUBUg6pE5KhdkLkHjI3riQFuzshuPj45YkE27NEEBXym4vLy9vk3yYQS3Hos8f19aqr3obJtIyK0KSENps+DorgqRDji8cmkIAgVQFSDqkykllCCAwiwBJh1m0KOuKgPyP0+7xYJda8Am3K4OyYBxJZzdMaIbkwwQcFy+dJiNUpGpxrGqylGZDEhJrkpi47mK8NiaSDq6ODHEhgMA0AZIO04S4jgACmQmQdMiMloozFiDxkDFwTtVP2bthnihIPsyj5uA9L39Zr9uwYmU3rpSDPN8kJWrybSFLNkg62JHggQACPgqQdPBx1IgZgUAESDoEMpAl7QaJB78H3h6DKUspdqQXWbyBJPng98sjUfT2RI2K7q/ZwqfJicGN2s6cULXB16f/SWEGBUmHU0z+RgAB3wRIOvg2YsSLQEACJB0CGsySdoXEg58D/+OPPzYl8q9yiJ7kQw7IITTxernHsDMXP9pvh9Av+oAAAghYAZIOvA4QQKAwAZIOhdHTcIoCNvHw3tfPNlKskqoyEpC9G2pRFLWk+rzX7ZN8yGhMqRYBBBBAwH0Bkg7ujxERIhCsAEmHYIe2fB0z6sHqN88a5eu4Pz2W2Q2bEm1L/qwWGHVXlnTYEzK2P/vss06BcdA0AggggAACuQmQdMiNmoYQQOC8AEmH8yJ877UAiQdnh++HH37Ylo0AP3cswAdxHDdJPjg2KoSDAAIIIJC6AEmH1EmpEAEEkgqQdEgqRTl/BMwXq193tv2JN+xI7ekUR0dHbenlNVd7KsmQh/1+3858sHHyQAABBBBAIDgBkg7BDSkdQsAfAUk67BilBjt/yw8juya+yGnP/sARqdMCWpk7733daTkdZAmCk/0b6rJ/w4501ZefK08kAdH65JNPeO2U4PVJFxFAAIEyCZB0KNNo01cEPBF4/mWtbkONtCQidLSmYlMzcvxYJAkKSVI4+4mlJ7yEmYNAXDEfvN/s7ObQFE2MEJD9G7bk6W9HXPLhqT0Jcnt5ebl1586dAx8CJkYEEEAAAQQmCZB0mKTDNQQQcFLgebO2pl6pjYpNQkTRxmlSgtkSTg5XWYPqSuKhTuIh3+EfLqfYllZv59tyJq2x6WQmrFSKAAIIIJC3AEmHvMVpDwEEMhewMyUqMjPC6Kgmu8TX5QddTRq9knnDNIDAGQF53T3tnyQe+LT6jEtWXw6Pw9yR+oObDcW+D1m9aqgXAQQQQCAPAZIOeSjTBgIIOCFwJhmxIcmIDfkBuCGB+bLe2wlDgphNQJYDPVn7+ll9trsoPavATz/9ZP9Nt+W+0P8970kCorm0tLTD0otZXyWURwABBBAoSoCkQ1HytIsAAk4IyFKNWkWWathlGsNZESQinBiZgILQ+rvV//v3VkA9cqorknBoyL/d+04FlX0wLL3I3pgWEEAAAQRSEiDpkBIk1SCAQDgCkojYqPQlEaGjDS3LM+TT6uCma4czWn70hBMtshmnH374YVs++f88m9q9qfWJGHDqhTfDRaAIIIBA+QRIOpRvzOkxAgjMKHC6caUcv1cfzoa4PmMVFEeAjSVTfg3ICRUtqfJ2ytX6XB2zH3wePWJHAAEEAhYg6RDw4NI1BBDITsDuD2GTEDITYpOZENk5B1bznpxosSEnWhwE1q9cuzM8oaItjTIDabw8sx/G23AFAQQQQCBnAZIOOYPTHAIIhCdgZ0LIvhCyDENvKq3q0sMr4fWSHqUhIAkqNpZcADLkEyoWYJl0K7MfJulwDQEEEEAgFwGSDrkw0wgCCJRJwO4JEfVPkhDyQ/Z6mfpOXxMIaH1PNpZsJihJkTMCJTqh4kyvU/3yqez9sM3JF6maUhkCCCCAQAIBkg4JkCiCAAIIzCswmAXRV5vG6LrMgtiUekI/0m9eqlLdFxtz4/1vOu1SdXqBzpJwWABv9K0P5OmdTz/9dGf0ZZ5FAAEEEEAgPQGSDulZUhMCCCAwVeD3L2uyB8RgGQYJiKlaQRewG0vW2N9h+hjLhpH230pL/pCwm841a4k92Rx3R/ansadf7M56M+URQAABBBBIIkDSIYkSZRBAAIEMBEhAZIDqUZXs7zB9sGSGQ0PeFN+fXpISKQg8lTpacRzvfPbZZ50U6qMKBBBAAAEEBgIkHXghIIAAAg4IDBIQWjcklFsOhEMIeQmwv8NYaRIOY2nyuMD+D3ko0wYCCCBQEgGSDiUZaLqJAAJ+CJzuAaGU3pJPwjkS0I9hWyhK9nd4l4+Ew7smRT0jm08+lLZ32ICyqBGgXQQQQMB/AZIO/o8hPUAAgUAFJAFRi+JoSxnTkC6ynj3QcZZu7cn+Dhvs73AywCQc3H2hk4Bwd2yIDAEEEHBZgKSDy6NDbAgggMBQ4Pe7tUasdEN+aHMEZ5ivioerXz+zGyaW+kHCwZ/hJwHhz1gRKQIIIFC0AEmHokeA9hFAAIEZBAazH17pJsdvzoDmSVFtzN/f+6az40m4qYdJwiF10jwrfCKN7bAJZZ7ktIUAAgj4I0DSwZ+xIlIEEEDgtYDd+yHqq4bd+0GevPL6Al/4LFDaYzRJOPj8sn0ndnsKxo7MhNjhGM53bHgCAQQQKKUASYdSDjudRgCBkATsyRex1lvyA52lF54PrGwe+mTt62d1z7sxU/gkHGbi8q3wngTclj87n376aWln8fg2aMSLAAIIpC1A0iFtUepDAAEEChJ4/mWtHknyQZrn2M2CxiCdZs0Xq193ttOpy+1aSDi4PT5pR2f3gTDGtFmGkbYs9SGAAAJuC5B0cHt8iA4BBBCYWeDMvg+3Z76ZG1wQsMss7GkWHReCySoGSThs2DegUj8ns2SF7Ga9g9kPknhoffbZZ3b8eSCAAAIIBC5A0iHwAaZ7CCBQXgGSD/6OfejLLEg4+PvanCdyZjjMo8Y9CCCAQDgCJB3CGUt6ggACCIwUIPkwksX5J0M9zYKEg/MvvVQC5EjNVBipBAEEEAhCgKRDEMNIJxBAAIHpAiQfphs5ViK40yzu37+/dnR01Bbna45ZE046Ak8l2bC9tLS0c+fOnYN0qqQWBBBAAAHfBUg6+D6CxI8AAgjMKGA3nJQ3Bk35HwCnXcxol3txox6sfvOskXu7GTRIwiEDVDeq7MreHK0oilockenGgBAFAggg4JoASQfXRoR4EEAAgZwEhqddtKS5Kzk1STNzCMTG3Hj/m057jludukWWVezIm1NOVnFqVBYKZs8mL5nVsJAhNyOAAAKlECDpUIphppMIIIDAeIHu3Zocs6mbUoJTBMYzFXUliJMsfvzxx5YAcppKUa+idNt9IidPNDl5Il1UakMAAQRCFiDpEPLo0jcEEEAgoYDs97AWxVFTGfN5wlsoloeA1vdW/+/fzTyayqoNmeHQkBkO97Oqn3pzE3gwTDZ0cmuRhhBAAAEEghAg6RDEMNIJBBBAIB0BST5s6L7elv85sN9DOqSL1OL9RpLff/99Xdb6P14EgXsLFyDZUPgQEAACCCDgtwBJB7/Hj+gRQACBTAR+v1trGKW3pXKWXGQiPL1Srcyd977utKaXdLMER2O6OS4zREWyYQYsiiKAAAIIjBcg6TDehisIIIBAqQUGSy5eSeJBsxa/gBfC3urXz2oFtJtKk5xUkQpjUZXYPRsasmdDp6gAaBcBBBBAICyBC2F1h94ggAACCKQl8H6zcyB1NeSUi1akdUu+vpJW3dQzWUBmOTQnl3D76tHR0Y5EeM3tKInunMBTSTZssUHkORW+RQABBBBYWICZDgsTUgECCCAQvgAbTeY3xkapJ2tfP6vn12K6Lf3www/bcpQiG5Kmy5plbV0Zr61PPvmklWUj1I0AAgggUF4Bkg7lHXt6jgACCMwsILMe6sx6mJltphtiY268/02nPdNNjhSWozE3JZSfHQmHMKYL3FteXt6+c+eOndXEAwEEEEAAgUwESDpkwkqlCCCAQLgC7PWQ3dj6PMuBjSOze11kUPOT4eyG3QzqpkoEEEAAAQTeEiDp8BYH3yCAAAIIJBX4/cvapjnZ64ETLpKiTSnn6ywHNo6cMrDuXO5KKM1PP/10252QiAQBBBBAIHSBKPQO0j8EEEAAgWwE3vumsxNXzIb9dD6bFspVq3X0dVmFbBxp38SycaTDL1mZ2fBQllLUSDg4PEiEhgACCAQqwEyHQAeWbiGAAAJ5CnT/8bemMuarPNsMrS1fZznIsoqGMeZ+aOMRUH/s7IaGJBt2AuoTXUEAAQQQ8EiApINHg0WoCCCAgMsCw00m7RsbllvMOFB2loOPJ1awj8OMA51/8Scyu2GTjSLzh6dFBBBAAIE3AhfefMlXCCCAAAIIzC9glwbIJpO1Sl+35U00U+1noJSZAs0ZijtTVOJuSTAkmZwZkbcC+YKlFG958A0CCCCAQEECzHQoCJ5mEUAAgZAFZLnFtiy3+DzkPqbVN19nOfzwww/bsk8AY5zWCyG9ep7KuDQ++eST3fSqpCYEEEAAAQTmF2AjyfntuBMBBBBAYIzA6v/9e0src2fMZZ4+I+DjLIfvv/++TsLhzCC68+UDWU5RJ+HgzoAQCQIIIICAUsx04FWAAAIIIJCZgCy32IhkuYU0wBT8Eco+znIYHo/ZYUxHDGhxT3UlCbQlyYZWcSHQMgIIIIAAAqMFmOkw2oVnEUAAAQRSEHi/2dmVYzVrkuF+mkJ1wVXh4yyH4+PjlgwESSR3Xo17knCwsxvsuPBAAAEEEEDAOQFmOjg3JASEAAIIhCcgMx7WZMZDS3p2K7zezd2jvdWvn9XmvruAG3/88cdNafbnApqmydECnE4x2oVnEUAAAQQcEiDp4NBgEAoCCCAQukD3y6stWdh3O/R+Jumf3fPiva87rSRlXSgj+zjUoiiymxMyy8GBAZFZMt/9v//3/7YcCIUQEEAAAQQQmCjA8oqJPFxEAAEEEEhTYPWbZw2lzBdp1ulpXXs+JRyssSQcWvIXCQeLUfBDllPcIeFQ8CDQPAIIIIBAYgGSDompKIgAAgggkIbA6ted7bKfbCH9b6ZhmVcdP/30U0Paup5Xe7QzVsBuGPkB+zeM9eECAggggICDAiyvcHBQCAkBBBAog8Dvd2sNo/T9MvT1XB+7spfD2rnnnP2W0yqcGRq7YeQmx2E6Mx4EggACCCCQUICZDgmhKIYAAgggkK6AXV4gJ1t8ILV2063Z8dq03nY8wrfC47SKtziK+ubp8vLyBgmHovhpFwEEEEBgEQGSDovocS8CCCCAwEICwyM161JJWRIP3TiKvUk62NMqZMNCThxZ6FW+8M32hIr6nTt3DhauiQoQQAABBBAoQIDlFQWg0yQCCCCAwNsCcqTmhhyp2ZZnw96o0KgHJ5tpvt1/F78bLqvYldiuuBhfSWJ68OmnnzZK0le6iQACCCAQqAAzHQIdWLqFAAII+CRQlhkP8QV/NpA8PDxsymuIhENx/5BIOBRnT8sIIIAAAikKMNMhRUyqQgABBBBYTCDwGQ8PZQPJzcWE8rlbTqvYkGUV/8qnNVoZIUDCYQQKTyGAAAII+CnATAc/x42oEUAAgSAFQp7xEBvjzV4OknDwJtYA/yGQcAhwUOkSAgggUGYBkg5lHn36jgACCDgoMEg8GOPFjICkfDKt8On733TaScsXWU5mOTSk/etFxlDitkk4lHjw6ToCCCAQqgBJh1BHln4hgAACHgvYN+hamTsed+Fc6H7MHLCbRzLL4dzQ5fctCYf8rGkJAQQQQCBHAZIOOWLTFAIIIIBAcoH3vu60Akk8dG1fkve8uJLDzSPDPkGkON5JLZNwmKTDNQQQQAABrwVIOng9fASPAAIIhC0weLOu9T2ve6m1F/sjfP/99zWt9edeW/sZPAkHP8eNqBFAAAEEEgqQdEgIRTEEEEAAgWIEVv/v301l1INiWl+81TiKW4vXkn0NURR5EWf2Evm1IEmeh59++mkjvxZpCQEEEEAAgfwFSDrkb06LCCCAAAIzCqx+86xhlHoy423FF5dkiWyM2Sk+kMkRyCyHupRg88jJTGlffbq0tNRIu1LqQwABBBBAwDUBkg6ujQjxIIAAAgiMFDAVs6nlFIiRFx19Mlam5Whob4Ulsxy8WALyVtB+f/N0eXm5fufOnQO/u0H0CCCAAAIITBcg6TDdiBIIIIAAAg4IyIyBg37FNCSUrgPhTA3BJkh8OCZzeETmtakdokBaAt04jjdJOKTFST0IIIAAAq4LkHRwfYSIDwEEEEDgtYAkHnZjYzZfP+H0F+4fkzk8IrPpNGNYwXVlH4f6Z5991gmrW/QGAQQQQACB8QIkHcbbcAUBBBBAwEGBk9kD5gsHQzsbUrdfUTtnn3Dx66Ojoy2J64qLsYUYkyQctj755JPdEPtGnxBAAAEEEBgnQNJhnAzPI4AAAgg4K7D6dWdbgnvobIBat+xyEGfjk8DsLAf5a8vlGAOL7Z4kHFqB9YnuIIAAAgggMFWApMNUIgoggAACCLgoEMv+Dq5uLCnHZNqkiNOP4SyHVaeDDCe4B3I0ZjOc7tATBBBAAAEEkguQdEhuRUkEEEAAAYcEXN1Y0h7tKbF1HKJ6JxRmObxDkuUT9qQKZpRkKUzdCCCAAAJOC5B0cHp4CA4BBBBAYJKA3VhSK+PUG7rIg2MymeUw6VWV6jVOqkiVk8oQQAABBHwUkJmpPBBAAAEEEPBboHv36o704JYDveiufv1szYE4xoZgZzlI0qEjBVhaMVYpnQtyNOYNOaminU5t1IIAAggggICfAsx08HPciBoBBBBA4IyA3d9Bvt0781QxX8oGksU0nLxVZjkkt1qw5D0SDgsKcjsCCCCAQBACJB2CGEY6gQACCJRbwO7vEJtB4qFQCNc3kGQvh9xeHk/YODI3axpCAAEEEHBcgKSD4wNEeAgggAACyQTe/6bTVlrfS1Y6/VL2JA3XN5BklkP64z6ixq5sHLk54nmeQgABBBBAoJQCJB1KOex0GgEEEAhTYPX//t20b/6L6Z3ZLqbdZK0yyyGZ06KlZB+HzTt37hwsWg/3I4AAAgggEIrAhVA6Qj8QQAABBBCwAn3Z3yHq63/lrNHtV9ROzm3O1ByzHGbimrcw+zjMKzflvu+//74mRWpRFG3I32vD4vXh3yP/Msbsaq0HCSBJBrUrlcrBJ598sjuyME8igAACCGQmIB8I8UAAAQQQmEXgebO2pl6pjUirDaWjNWXMhhn+Eiw/VK+Pq8t+Ah8rNfgFWH4Rbtty9hdhdUF1XJ+WP65Prj7f/cffmjIuX+UWn1EPVr951sitvTka+vHHH+1rjxMr5rBLeMtT2cdhI2FZik0QsAkGSRDU5efjhvystKZjf65OqGbSpadSb0eSEm37s5hExCQqriGAAAKLC5B0WNyQGhBAIHCB51/W6vLpWt0mF6SrdfmTyRs3SVw8sb8A6zje7V9Qbbs5orTFY04BOUazI7demfP2mW6TTSxvDPaUmOmu/Ar/9NNPDXmDdT+/FkvXUlf+7dZ58zr/uEtSbFPutn/q8ieXf7fSzunDjl9bvtnp9/ttOXWkc3qBvxFAAAEEFhcg6bC4ITUggEBgAnYmQ6WvNo3Sp78AZ5JkmMY2SEIosxPLtH1mQkzTevf6IFmk9eN3r6T+zN7q189qqdeaYoXyhq4j1eX9Ri7FHjhf1Rcyy2Hb+SgdC/BMosH+rC3k5+wYEjsTYntpaWmH/TnGCPE0AgggMIMASYcZsCiKAAJhC/z+ZW3TaN2QXt5yrad2aYZRpiUJiBYzIJKPTvfLqy2l1e3kd8xRUk7MsBtYznFnLrcM39j9nEtj5WzEHo9ZL2fXZ++1XTohM8cacqf940Mi7IEs82jJ7Ie2xMsDAQQQQGAOAZIOc6BxCwIIhCMgsxpqUSy/ABuzJb1y6ZO28ciyf0AsCQiXp/OPDz7fK3bWimwq2ZFWMxvbuGKuujwTRZIOben/dfnDI32Brt13gOn402GHyYamlMw2CTg9lHlLPJHZDy1ZQtOatwLuQwABBMoqQNKhrCNPvxEoucAg2fBKNzP/FDxDZyN7QMg6/SbJh8nI3bs1SSjpbyeXmu+q/E/06XtfP9uY7+7s75K9HDbkNfKv7FsqbQssq5gy9AEkG873cE+SD02SD+dZ+B4BBBAYL0DSYbwNVxBAIECBEJIN54eF5MN5kXe///3u1V1xuvbulcWe0crcee/rTmuxWrK7W2Y52Nh8/WQ5O5h0amZZxQTH+/fvr8kxrdsBv/6eyCyXJssuJrwIuIQAAggMBUg68FJAAIFSCAym2cfRliyj+CrUDg+SDxXTcHmqf1H2WW0qKUsr3nd1j43hm77nRZmH3q582v0Bp1WMHmVJdtnlak35szq6RFDPPlheXt5iw8mgxpTOIIBAygIkHVIGpToEEHBPYLhBZEsiK8MvwLKSQN+Lo3jb1TfDRb1CDu5ebcv/9K6n2P5DObViM8X6Uq1K3vg1pcJgk2ypYs1e2T3ZPNL68jgjMFzO05KnUp9VdKYZF7/sSlANeU3suBgcMSGAAAJFC0RFB0D7CCCAQFYCdnZD9+7VHTmR4mdpoxwJB4spszlk88Rd++m+/ZbHiYCRWSBpWmhjWmnWl0FdjQzqpEql9uSTbbtsgMcZATu7Ybh/SNkSDlbB/v/lZ0m67NgZRmdY+BIBBBBAQASY6cDLAAEEghQo3eyGcaPo+HGO48LO6vkUj9DsyiwHZ99cyBvATTG0yTYeKQvIOv4brON/gzpcxrMjz6Q5i+hNA/59ZU802eQ14t/AETECCGQnwEyH7GypGQEEChLo/uNv26Wb3TDOWmY92E0U7Qaa44qU6fn4gmmm0l+j7JssZx+y30DD2eA8DkxcH/Jm8s0A2uUUslnkrjxDwuENy2oURY+H+1q8eZavEEAAgRILkHQo8eDTdQRCE7DLKewbbFle8HlofVukP0bWV7Pc4kRwsMmmzP5YxNPeK6dWOJt0sEcUyjT3W4v2kfvfFej3+1vvPlvOZyTh0JDXWVt6f6WcAlN7/a0kHlpTS1EAAQQQKIEASYcSDDJdRKAMApJw2JA31h37BrsM/Z2jj6uR1o9/v1trzHFvULfYTTalQ3bjt3kf3fe+6TibdJBPWRvzdoz7Jgrck1kOnYklSnJxuH/Dfenuakm6PG83b4vVLvs8zMvHfQggEIoASYdQRpJ+IFBigcFxiH3dFgJ+AZ7yOjBK37fLT6YUC/ry4FQPrec3cHxphQxeI+gBLKZzbB45dB9+ev9tMcPgZavXZAlKm8SDl2NH0AggkJIASYeUIKkGAQSKEbCf3NtP8KV1Eg5Jh0CWnww2VExaPsByw9kOc/VM9oWYP2ExV4vJb5I3hJtSmunuyckSlZS9HJp37tw5SFQ44ELDhMPtgLuYVddIPGQlS70IIOCFAEkHL4aJIBFAYJSATTjYT+5HXeO5KQJa3S5z4mEw28GoB1OURl3ek3t3R11w5DmbdOCRrsDTTz75pJVulf7VRsJh4TEj8bAwIRUggICvAiQdfB054kag5AIkHFJ4AZQ88TDXSRZa76Qgn0kVw+nbfAqdsq4cf7iVcpXeVUfCIbUhI/GQGiUVIYCATwIkHXwaLWJFAIGBgN3DgRkOKb0YSpx4GJxkMeNsB1mW0UpJPvVqjo+PmeWQuqp6UvYjMu0pFcJKMiu919Yg8ZBeddSEAAIIuC9A0sH9MSJCBBA4IzA4pcLhT5vPhOrPl5J4KOupFrEyrRkGquvy0go5vrD0n8jPMJaJisosh2aigoEWsnuEyOuKJWzpj++14eyR9GumRgQQQMBBAZIODg4KISGAwGgBSTisybGYbbnKppGjieZ+1s4c+f3LWuk+KX//m07bKPUkEZzDp1Z8//33NenDtUT9oFAiAdk88mGZZznIDIcNgWolwqLQPAL2OE0ShfPIcQ8CCHgnQNLBuyEjYATKK1Ah4ZDp4ButW3YmSaaNOFh5lHC2g1Zmx8HwByFFUbTpamy+xtXv90v7htDuDyIzHFoydiR4s30BfysJw3q2TVA7AgggULwASYfix4AIEEAggUD3H3/blk+k+SQ3gdUCRVYlsWMTD2sL1OHdre993WlJ0N0pgXff+6bjbNJBYi/tG+Qp4zbv5Qcyy6Ez782+33d0dLQtfeDnbQ4DKQnDneEmsDm0RhMIIIBAMQIkHYpxp1UEEJhBYDDt35jPZ7iFonMK2MROFEfNOW/39zaZ5TExeIeXVgynwV+ZGD8XZxIo814Odh8Hwbo9ExiFFxFYlU1gW4tUwL0IIICA6wIkHVwfIeJDoOQC9lN3O+2/5Az5dl8SPGXb30FOpbCf7I59uLy0Qt4gN8YGzoV5BEo7y2H4iXtrHjTumV9AlrLcGiZ75q+EOxFAAAGHBUg6ODw4hIYAAkrJxpEtcWBdcc4vhuH+Dms5N1tYc/b4TJnlMXZDSZeXVsiGh/aTaR4pCYjnxARUSs04Wc3wE3d+3hYzOi2WWRQDT6sIIJC9AEmH7I1pAQEE5hQYftp+a87buW0xgdXoVbnefE3YUPLhYpTZ3c3SitRtn3zyySe7qdfqQYV2Q0P7ibsHoYYa4upwL41Q+0e/EECgxAIkHUo8+HQdAZcFhssqSvuJoxNjo9Xt51/W6k7EkkMQ/YraGdUMSytGqYT5XJn3cpANDVthjqpXvbrNaRZejRfBIoBAQgGSDgmhKIYAAvkKyGaGW9Iim+Ply/5Oa5USTTWXJRYHyqgH5xHGJSPOlyvie1kKUC+i3UDbfCInVrQD7dvEbsl+Ak0pwM/biUr5XJTkjx0LHggggEBQAiQdghpOOoNAGAIyy6GmjPkqjN743QvZ5+Da73drDb97kTz687Ma9P9n72622zjOhI93NUQSsnJG9E4zWRC5AnGugNCxnK3oKzC9SSYr0/t5j+l3sje9yplsDF1BqG3sHENXMNANvAEXibULOSe2QFLoep+nAYgfwkejP6u6/zhHIgF0V1f9qgF2PV0fQfAqDkYkT6K0LeWOaEcO9ri0A9b/QI3sWTWdR0CDvDzcENiTYVMHbmSFXCCAAAL5CBB0yMeRVBBAIEcBmUvgKMfkSCqjgA2aUx/TCSPPZ2Q2sL3Z7679lDui+67lyeP8nP72t7898Tj/qbMu8whowOFh6gTYMXcBmVvjKPdESRABBBCoUICgQ4X4HBoBBN4XiHs5yFwC77/DKxUK7DSpt4M492fWUev699lrDv08cCgvXmdFhqkceV2AlJmnl0NKuOJ326G3Q/HIHAEBBMoTIOhQnjVHQgCBBAL0ckiAVMEmTertcGOIxakMrRhUwL3ykNPGIkMrVkol2uB8Y2Ojqb0cDkSIXg6JTpNyN5LeDlo3PBBAAIFaCBB0qEU1UggE6iFALwen67ExvR3eTRxp3e3lcHV1te/02eJR5qRx1/vss8/OPMpynlk9zDMx0spVYI+VLHL1JDEEEKhQgKBDhfgcGgEEbgvIihUHt1/hmVsCphENFJ04UieQvNHjwa1qmOSGoENOtSJBh+OckvIqGVmxQs8hVqxwuNZk3pYDh7NH1hBAAIHEAgQdElOxIQIIFC5Ad9LCibMcQFeykN4ou1nS8GVfa8zJ+J67PR2kodz1xdLlfMpcDi9kmcyhy3ksKm9S9oOi0ibd3AQ+nQ6lyi1BEkIAAQSqECDoUIU6x0QAgfcE/vc/O9x1e0/FvRdkzo1D93KVf44e/t//d+TwUpldKTHj8HOodh1akUMy3iWhDVkp+zPvMt7ADDOUqoGVTpERqKEAQYcaVipFQsBHAbmzfOBjvhuXZxNocIhHhQLS5bpb4eHrdOgmL5N5UKeKrHNZJDjUiEBvneuQsiGAQBAQdOAsQACBygWky/62ZIK7bpXXRKIMPJz2Skm0MRsVIkDgJx/WXj7JeJkK55A/1fZYJpTs+JNdcooAAgi8L0DQ4X0TXkEAgZIFWmPunpdMnulwsnwmDZZMgul3ZqnM9HZ394yiqHf3tSY8n55De00oa13K2Gq1unUpC+VAAIFmChB0aGa9U2oEnBKw1nSdyhCZWS7AEIvlPgW+e3l52S0w+cYk3eQJJJkjwMvTnECvl9VGphFAYCZA0GEmwU8EEKhOgEZsdfbpjvywKatYpOMpdC8aH/nwnuSTjH+psPIJdeafADlGAAHfBQg6+F6D5B8BzwWmjVdm4vesHsMopPFbTZ11qzlsrY56/pvf/KZXqxKtV5juepuztQMCD//4xz/uOpAPsoAAAgikEiDokIqNnRBAIC+BcBx080qLdMoT4G5pedazI00nk9uZPednaoHG9nKYzufAOZT61KluR75zq7PnyAggkF2AoEN2Q1JAAIFMAsznkImvop1NEHDXrWR7JpPLB7ypE0iqHnOC5HMOVZQK37kVwXNYBBDILkDQIbshKSCAQDYBLqSy+VW1N/M6lCzPnc5cwE9/97vf9XNJyc9E+L71s94019Sdv3VHzhFovABBh8afAgAgUJ2AzOewLUenq291VZDpyK23QSdTAuy8rkB33R3Y/raABG5Obr/SrGeyagcNV3+r/LG/WSfnCCDQdAGCDk0/Ayg/AlUKvOXOTZX8WY9tw5AGTFbEhPszFj8h1IrNwjDsrdik1m9L0KVT6wLWvHBMJlnzCqZ4CNRYgKBDjSuXoiHgukDLcKfc9Tpamj9rCTosBcrvTcbi52J5KqtWDHJJyd9EuFvub90F4/F42+Psk3UEEGiwAEGHBlc+RUegagFrwk7VeeD46QVsEHABnJ5vrT2Zz2EtrrkbN31oxVwUXvRKQHrqdL3KMJlFAAEEpgIEHTgVEECgOoGIrr7V4Wc/MitYZDdMmgJj8ZNKLd6u6UMrZMnV7mId3kEAAQQQQKA4AYIOxdmSMgIIrBCwDK9YIeT82w+dz2F9MrhXn6JUUhKGVlTCzkHzFJDeOvQuyxOUtBBAoDQBgg6lUXMgBBBAAAEE1hfgDvX6Znf3YGjFXRGe+yhAjycfa408I4CAChB04DxAAIHKBKR7fqeyg3PgXAT+8Z+dbi4JkchCARkWsLvwTd5IJND0oRWK1Gq1Oomw2AgBBBBAAIGcBQg65AxKcgggsJbAzlpbszECzRQg6JCt3s9ZtSIIpLdHJxsjeyOAAAIIIJBOgKBDOjf2QgABBBBAoCyBblkHqulxTmpaLoqFAAIIIICAFwIEHbyoJjKJAAIIINBEgW+//VYnjqNHULbKJ+iQzY+9EUAAAQQQyCRA0CETHzsjgAACCCBQnMBoNGJoRUbezc3NfsYk2B0BBBBAAAEEMggQdMiAx64IIIAAAggUKcAkktl0Zbb/F5999tlZtlTqsXcURf16lIRSIIAAAgj4JkDQwbcaI78I1EvgtF7FoTQI5C5AT4cMpDJ5Yj/D7uyKAAIIIIAAAjkIEHTIAZEkEEAgnYANgmG6PdnLGYF7wcCZvNQzIwQdMtSr9HToZ9idXRFwTaDvWobIDwIIIJBEgKBDEiW2QQABBBCYK/Dh0ZCu63NlcnvxcW4pNS+hU5bKvK70VqvFZ/Wag98QQAABBEoUIOhQIjaHQgCB2wImCLgIvk3CMwTeCfzxj3+kl8M7jVS/9FPtVdOdCMD4X7HSc2fofykoAQIINFGAoEMTa50yI+CKgDEDV7JCPtYXkOExL9ffiz3WECDosAbW3U0ZWnFXJH5+PvdVXvRCYDweD73IKJlEAAEE7ggQdLgDwlMEEChRwEb0dCiRm0P5JSCTIHb8yrFbud3Y2DhxK0dO5IZArxPVkDoTw9R7siMCCCBQoQBBhwrxOTQCTReILJMQ+nwOcCe58NrrFn6E+h7gFUtlzq3c4dxXedELgd/97nfUnxc1RSYRQOCuAEGHuyI8RwCB8gTusXpFedj5H8nYaJh/qqR4Q2D7xu/8uoYAS2UuxKKnw0Ia599gOJvzVUQGEUBgkQBBh0UyvI4AAoULyMoHQzkIY4wLly7mAGNL0KgY2XepsnLFO4r1fqEXznyvKIoIOsyncf5VCaRRd87XEhlEAIFFAgQdFsnwOgIIlCIgkxFyIVWKdP4H+fD3w37+qZKiCrByRbbzYHNzs58thXruLd3zcfG0asMw5G+lp3VHthFAIAgIOnAWIIBApQLckayUP/XBWbkiNV2iHWWW+u1EG7LRPIFT5nOYx/LuNbrpv6Pw5xf5Tuj7k1tyigACCNwWIOhw24NnCCBQsoB09+2XfEgOl4OABIu465aD46Ik5K5md9F7vL5SoL9yi2ZvgI9/9X/KJJL+VRo5RgCBawGCDtcW/IYAAhUI0EW/AvQcDmkIFuWguDSJztJ3eXOhAL2nFtLEbxDoXe7j6Lt9R/NFthBAAIFEAgQdEjGxEQIIFCzwouD0ST5ngX/5/fAk5yRJ7rZA5/ZTnq0hQC+cJVjTeR2YwHeJkYNv8X3rYKWQJQQQSC5A0CG5FVsigEBhArZfWNIkXIQAQaIiVG+n2bn9lGcJBc5/85vfEHRYjUUjdrWRK1uc//a3v6W+XKkN8oEAAqkECDqkYmMnBBDIUyBqBVxQ5QlacFomsNRXwcaS/E7xh6jlEQa1LFX+heIznL9pUSlSV0XJki4CCJQmQNChNGoOhAACiwQ+PBoOWQ1hkY57r48JEhVaKSyXmYm3n2nvhuw8vXPOEAs/6puggx/1RC4RQGCJAEGHJTi8hQAC5QmEge2VdzSOlEHghQSJzjLsz64rBFgucwXQ8rcHy9/m3ZmAtXznziwc/nnK0AqHa4esIYBAYgGCDomp2BABBIoUmN49585bkcg5pG1oqOSguDwJWS5zd/kWvLtIYHNzs7/oPV6/LSBBh+Pbr/DMQYGeg3kiSwgggMDaAgQd1iZjBwQQKEIgvntumduhCNsc0zxl1YocNRcntb34Ld5ZInD62WefnS15n7duCMgqFkN5+vLGS/zqmIAsb9pzLEtkBwEEEEglQNAhFRs7IYBAEQLRPXtURLqkmZcAd0bzklyRTmfF+7w9R8AYM5jzMi8tEZBG7dGSt3mrWoHn08BQtbng6AgggEAOAgQdckAkCQQQyEeACSXzcSwolXNZZaRXUNoke1ugc/spz5IIyHABgg5JoG5sI43avjx9deMlfnVEgICQIxVBNhBAIBcBgg65MJIIAgjkJSANh6O80iKdHAWMOWYCyRw9SaoIAYIO6VSP0u3GXgUK0MuhQFySRgCB8gUIOpRvzhERQGCJwIe/H/ZZPnMJUDVvnUdhdFzNoRt51L1GljpjoeXOMEGHFIbT1RGY2yGFXVG70MuhKFnSRQCBqgQIOlQlz3ERQGChAL0dFtJU8wa9HKpx56hrCTD+fS2uWxvTyL3FUfUTejlUXQMcHwEEchcg6JA7KQkigEBWAe3tENjgedZ02D8XgVN6OeTimCiRP/zhD51EG7LRXQHu1N8VWeO5zu0gE3G+WGMXNi1G4FyWfT0sJmlSRQABBKoTIOhQnT1HRgCBJQLTlSzOl2zCWyUImMAeMZdDCdDXh+hc/8pvSQWYRDKp1OLtxuOxNnb5zl1MVMY7Ryz7WgYzx0AAgbIFCDqULc7xEEAgkYCuZBFIt/5EG7NRIQI6t8a//NewV0jiJIpAjgJyl36YY3KNTGo6POWokYV3o9AvZX4N/ua5URfkAgEEchYg6JAzKMkhgEB+Ag//7/87Miznlh/oeimd25Y9WG8Xts4q0Gq1OlnTaOL+TCKZT61PG70MVcmHc51UziVwxrCKdcTYFgEEvBIg6OBVdZFZBJonMKbhW1Glx8MqhhUdvLGHlWECncYWPkPB2+32IMPu7HpDQAI4B/KUYRY3TEr49eg3v/kN53AJ0BwCAQSqESDoUI07R0UAgYQCMsxiIMMsvkq4OZvlIKDDKh7+15BuvjlYkkQpAueMg8/PWYdZcNc9P89VKekEngyrWKXE+wgg4LsAQQffa5D8I9AAAR1moQ3hBhTVhSLqsIp9FzLSxDxIT4ftJpY7Y5m5Q5wR8O7ucte9J689v/s6z3MXON3Y2DjIPVUSRAABBBwTIOjgWIWQHQQQmC8wbQjT5Xc+T26vRtbus1pFbpxrJyR3PXfX3okdhhDkLyB33w8k1Vf5p0yKUwGdx2GfXjqcDwgg0AQBgg5NqGXKiEANBLQhHLVsV4pC4KGw+rRffPj7Yb+w5EkYgWIEhsUkS6qbm5tdUeA7t4BTQYewMI9DAbAkiQACTgoQdHCyWsgUAgjME9D5HUxgD+e9x2sZBWzwnHkcMhqye1UCDK8oSF7vwkvjuCvJE3jI0VhMP5sOYckxVZJCAAEE3BUg6OBu3ZAzBBCYI/Av/zXsSeDhszlv8VJKgXjiyN//9SDl7uyGQKUCstrCWaUZqPnB9W48gYdcK/k5AYdcPUkMAQQ8ECDo4EElkUUEELgtoIGHQO7M336VZ2kEjIzZZuLINHKF7bNXWMo1TVhWW+jXtGjOFIvAQ25V8Xw6V0ZuCZIQAggg4IMAQQcfaok8IoDAewIP9c48gYf3XNZ5QQMOY5kng4kj11FjW8cE6PZfUoUQeMgMTcAhMyEJIICArwIEHXytOfKNAAIBgYf0JwEBh/R27OmUAPM5lFgdBB7SYctSuN/QwyGdHXshgEA9BAg61KMeKQUCjRWIAw+B/aKxACkKrnM40MMhBRy7OCcgcw0wn0PJtULgYT1wnTTyP/7jPw7X24utEUAAgXoJEHSoV31SGgQaKaCrLjC5ZMKqlyEp2//1V4ZUJORiM7cF5A4yPR0qqCINPMhymh059KsKDu/LIXXozydi1fMlw+QTAQQQKEqAoENRsqSLAAKlCujkklHL/rscVC/0eMwVsF9MeobMfZMXEfBRgJ4OFdWaLqcpQwZ25fBM6vt+HbzSFT/E5+T9t3gFAQQQaJ4AQYfm1TklRqC2AjIh4kACD7s6X0FtC5muYOeRtU+0R0i63dkLATcFZLnMgZs5a06udK4CHUIgJSbgO6n259ILpKu9QZpzFlBSBBBAYLkAQYflPryLAAKeCUjgYfgv//XX3cCYbzzLeiHZ1fkbJBDT+fD3w34hByBRBBBovIAOIZAA0K5AvGwwhgZdPtEgjPYCabADRUcAAQTeE5AbgjwQQACBegr84z873dCYnpRup54lXFoquQC2R/RuWGrk1Jt/+MMfumEY/uBUphzPjDTwuI5xrI7++7//+1CydCT/HjqWtcKyIz09XmxsbBBsKEyYhBFAwHcBejr4XoPkHwEEFgro3X0dbtG0Xg/T3g27BBwWnhq8gQACBQlIIOhYez1oQ7ygQ7iU7KmU9Yn09Nind4NL1UJeEEDANYF7rmWI/CCAAAJ5CshwC+3meviPo07PjI2schHs5Zm+Y2mdyioe2ruh51i+yA4CRQi8KiJR0swu8Lvf/W4oqexPe+8cye91+97VoRRHGmCRnzwQQAABBFYI0NNhBRBvI4BAPQR0kkldKtJY+4mU6LQepXpXinPpzfGV9urQVTzevcovCNRbgHHzjtevBB/60jDvSjb1e/el49lNkj0NNnyly4UScEjCxTYIIIDARICeDpwJCCDQKIF/+f3wRAp88r//p3NgA3Mkv+94DKDBhuMojI4/PPorDTCPK5Ksry8g3fc559dnq2QPaaDH37se93zQQPWxBBt6DKOo5BTioAgg4LkAQQfPK5DsI4BAOoFpj4De//5nZz8y5tCzYRdyAWyPo1bQI9iQrv4d3WvoaL6czJa1duBkxsjUQgHt+SBvdiX40JGg0aH8O5Dnzk44qfNSyHnWmwZNJKs8EEAAAQTSCMh1Ng8EEEAAAZnzoRNG4WFg7b5ouNn7wQbPo8D2WP6yvuerzPxv61u63Ev2lTQGj3JPlQRLFZBzXr9zZ/8qD0BooEHycyKrUZzQq6HUU4GDIYBAjQUIOtS4cikaAgikE9DeDzL0Yj8wQVdSqDIAoeOH+zI55Mm4FZxMJ8VMVyj28kKAoEPyapLG4WeyakAv+R5s6brAdPhFV/Kp//bkXxkP6TkW9OXfiQyf6BNoKIOcYyCAQNMECDo0rcYpLwIIrCUgPSB2w7FeABv5F18IF3onTm5zv5TGVF+WYevTo2GtqqrFxgQdklejLlU47a6ffCe29EpgGoTYlUzrv870Z5bvYP1+PdOhOfod2263BwQZRJUHAgggULAAQYeCgUkeAQTqJaDDMFpvg10bhrtBZDvWBB35Iu1IKdfpEXEuwYWB7HcmE0EOjI2G0pNhoCts1EuL0qwrQNAhuRhBh+RWddvyj3/84+54PN6elSsMw+7s9+lPDSqczV4jODWT4CcCCCBQjQBBh2rcOSoCCNRUQIMSwds4CHG7hPeCM4IKt0l4hgACCCCAAAIIIIAAAggggAACCCCAAAIIIIAAAggggAACCCCAAAIIIIAAAggggAACCCCAAAIIIIAAAggggAACCCCAAAIIIIAAAggggAACCCCAAAIIIIAAAggggAACCCCAAAIIIIAAAggggAACCCCAAAIIIIAAAggggAACCCCAAAIIIIAAAggggAACCCCAAAIIIIAAAggggAACCCCAAAIIIIAAAggggAACCCCAAAIIIIAAAggggAACCCCAAAIIIIAAAggggAACCCCAAAIIIIAAAggggAACCCCAAAIIIIAAAggggAACCCCAAAIIIIAAAggggAACCCCAAAIIIIAAAggggAACCCCAAAIIIIAAAggggAACCCCAAAIIIIAAAggggAACCCCAAAIIIIAAAggggAACCCCAAAIIIIAAAggggAACCCCAAAIIIIAAAggggAANm1hJAABAAElEQVQCCCCAAAIIIIAAAggggAACCCCAAAIIIIAAAggggAACCCCAAAIIIIAAAggggAACCCCAAAIIIIAAAggggAACCCCAAAIIIIAAAggggAACCCCAAAIIIIAAAggggAACCCCAAAIIIIAAAggggAACCCCAAAIIIIAAAggggAACCCCAAAIIIIAAAggggAACCCCAAAIIIIAAAggggAACCCCAAAIIIIAAAggggAACCCCAAAIIIIAAAggggAACCCCAAAIIIIAAAggggAACCCCAAAIIIIAAAggggAACCCCAAAIIIIAAAggggAACCCCAAAIIIIAAAggggAACCCCAAAIIIIAAAggggAACCCCAAAIIIIAAAggggAACCCCAAAIIIIAAAggggAACCCCAAAIIIIAAAggggAACCCCAAAIIIIAAAggggAACCCCAAAIIIIAAAggggAACCCCAAAIIIIAAAggggAACCCCAAAIIIIAAAggggAACCCCAAAIIIIAAAggggAACCCCAAAIIIIAAAggggAACCCCAAAIIIIAAAggggAACCCCAAAIIIIAAAggggAACCCCAAAIIIIAAAggggAACCCCAAAIIIIAAAggggAACCCCAAAIIIIAAAggggAACCCCAAAIIIIAAAggggAACCCCAAAIIIIAAAggggAACCCCAAAIIIIAAAggggAACCCCAAAIIIIAAAggggAACCCCAAAIIIIAAAggggAACCCCAAAIIIIAAAggggAACCCCAAAIIIIAAAggggAACCCCAAAIIIIAAAggggAACCCCAAAIIIIAAAggggAACCCCAAAIIIIAAAggggAACCCCAAAIIIIAAAggggAACCCCAAAIIIIAAAggggAACCCCAAAIIIIAAAggggAACCCCAAAIIIIAAAggggAACCCCAAAIIIIAAAggggAACCCCAAAIIIIAAAggggAACCCCAAAIIIIAAAggggAACCCCAAAIIIIAAAggggAACCCCAAAIIIIAAAggggAACCCCAAAIIIIAAAggggAACCCCAAAIIIIAAAggggAACCCCAAAIIIIAAAggggAACCCCAAAIIIIAAAggggAACCCCAAAIIIIAAAggggAACCCCAAAIIIIAAAggggAACCCCAAAIIIIAAAggggAACCCCAAAIIIIAAAggggAACCCCAAAIIIIAAAggggAACCCCAAAIIIIAAAggggAACCCCAAAIIIIAAAggggAACCCCAAAIIIIAAAggggAACCCCAAAIIIIAAAggggAACCCCAAAIIIIAAAggggAACCCCAAAIIIIAAAggggAACCCCAAAIIIIAAAggggAACCCCAAAIIIIAAAggggAACCCCAAAIIIIAAAggggAACCCCAAAIIIIAAAggggAACCCCAAAIIIIAAAggggAACCCCAAAIIIIAAAggggAACCCCAAAIIIIAAAggggAACCCCAAAIIIIAAAggggAACCCCAAAIIIIAAAggggAACCCCAAAIIIIAAAggggAACCCCAAAIIIIAAAggggAACCCCAAAIIIIAAAggggAACCCCAAAIIIIAAAggggAACCCCAAAIIIIAAAggggAACCCCAAAIIIIAAAggggAACCCCAAAIIIIAAAggggAACCCCAAAIIIIAAAggggAACCCCAAAIIIIAAAggggAACCCCAAAIIIIAAAggggAACCCCAAAIIIIAAAggggAACCCCAAAIIIIAAAggggAACCCCAAAIIIIAAAggggAACCCCAAAIIIIAAAggggAACCCCAAAIIIIAAAggggAACCCCAAAIIIIAAAggggAACCCCAAAIIIIAAAggggAACCCCAAAIIIIAAAggggAACCCCAAAIIIIAAAggggAACCCCAAAIIIIAAAggggAACCCCAAAIIIIAAAggggAACCCCAAAIIIIAAAggggAACCCCAAAIIIIAAAggggAACCCCAAAIIIIAAAggggAACCCCAAAIIIIAAAggggAACCCCAAAIIIIAAAggggAACCCCAAAIIIIAAAggggAACCCCAAAIIIIAAAggggAACCCCAAAIIIIAAAggggAACCCCAAAIIIIAAAggggAACCCCAAAIIIIAAAggggAACCCCAAAIIIIAAAggggAACCCCAAAIIIIAAAggggAACCCCAAAIIIIAAAggggAACCCCAAAIIIIAAAggggAACCCCAAAIIIIAAAggggAACCCCAAAIIIIAAAggggAACCCCAAAIIIIAAAggggAACCCCAAAIIIIAAAggggAACCCCAAAIIIIAAAggggAACCCCAAAIIIIAAAggggAACCCCAAAIIIIAAAggggAACCCCAAAIIIIAAAggggAACCCCAAAIIIIAAAggggAACCCCAAAIIIIAAAggggAACCCCAAAIIIIAAAggggAACCCCAAAIIIIAAAggggAACCCCAAAIIIIAAAggggAACCCCAAAIIIIAAAggggAACCCCAAAIIIIAAAggggAACCCCAAAIIIIAAAggggAACCCCAAAIIIIAAAggggAACCCCAAAIIIIAAAggggAACCCCAAAIIIIAAAggggAACCCCAAAIIIIAAAggggAACCCCAAAIIIIAAAggggAACCCCAAAIIIIAAAggggAACCCCAAAIIIIAAAggggAACCCCAAAIIIIAAAggggAACCCCAAAIIIIAAAggggAACCCCAAAIIIIAAAggggAACCCCAAAIIIIAAAggggAACCCCAAAIIIIAAAggggAACCCCAAAIIIIAAAggggAACCCCAAAIIIIAAAggggAACCCCAAAIIIIAAAggggAACCCCAAAIIIIAAAggggAACCCCAAAIIIIAAAggggAACCCCAAAIIIIAAAggggAACCCCAAAIIIIAAAggggAACCCCAAAIIIIAAAggggAACCCCAAAIIIIAAAggggAACCCCAAAIIIIAAAggggAACCCCAAAIIIIAAAggggAACCCCAAAIIIIAAAggggAACCCCAAAIIIIAAAggggAACCCCAAAIIIIAAAggggAACCCCAAAIIIIAAAggggAACCCCAAAIIIIAAAggggAACCCCAAAIIIIAAAggggAACCCCAAAIIIIAAAggggAACCCCAAAIIIIAAAggggAACCCCAAAIIIIAAAggggAACCCCAAAIIIIAAAggggAACCCCAAAIIIIAAAggggAACCCCAAAIIIIAAAggggAACCCCAAAIIIIAAAggggAACCCCAAAIIIIAAAggggAACCCCAAAIIIIAAAggggAACCCCAAAIIIIAAAggggAACCCCAAAIIIIAAAggggAACCCCAAAIIIIAAAggggAACCCCAAAIIIIAAAggggAACCCCAAAIIIIAAAggggAACCCCAAAIIIIAAAggggAACCBgI6iCwvX2vPdrVkoRB0J2VyNrr32evrfppA3MWGjvQ7aw1Z1Z+N+PW2dXVT/Frq/bnfQQQQAABBBBAYJXAP37obLffTq5dohvXLiZc/9pFjyXXPMNA/8kjDOVnFAzHtnX2i1//jesXRanoMa+ejTHbgbHxdes62bpZx4EJB6GNzkb32oMPnwzP1kmHbRFAoHwBgg7lm2c44iS4oIEFGwWdwMi/INjLkOCau5pz+bMuf7yN/gEfakDi7WjUXzMRNkcAAQQQQACBhgi8+eFRJ3gbdDSwII3NXWlsbktwoMRrF7lqCYJza4JBYOX6xQRDE9nB/Y9f9xtSBaUUcxZciANIcn1q9Bq1zHo2wctZ/UbjsE+wqZRq5yAIJBaQ72EergpsbDzYDcKoK+F7+SMdR/533MyreSX56htr+peXm/0gOCPi7GZFkSsEEEAAAQQKFfjnn3+5G7b02kWvW+K72Y5euyiDeWXlZkpogn4QBv37T14P9VUeqwXiYFIUdCOpZxNIMCmwj1fvVfIWGogIzEldgxBaB9Hb4KBkVbcON+3xcitT94Ihn+VbIk48IejgRDXMMrG9vbl52bVBtO92kGGW30U/J0GIIAp7DMtYZMTrCCCAAAII+C8wa3zKkMx9E1i5hgkeelyqU8l/XwZonFy2Nvt0279dk3FAKYwO5NWuk0GG29m9++xd3T54+veTu2/6+PzNd4+60oPnBx/zXl6epU1i7Nm7oTkSpLCRGdITprwamB2JoMNMorKf29sb7dH+9I/1s8qyUdiBZUiGtSc2DHoMxSgMmYQRQAABBBAoTUADDXLhvi+9GQ48bHyu4WReGGNPRmH7pKkBiLiux+ZQ6nlf4BzutbJGtQbBqfaAMC177PMdcYIOa9X5nI0nPZ1k2Negrr1h5hS6spcIOlREf6/d7ppI/lib4NOKslDFYeMv+Zaxx6PRaFhFBjgmAggggAACCKwvEI/Zj+QmSSDXLmWO1V8/qwXtYV7IZNu9utwlX4X05i+PDuSGmAYb3Bs2sSrza70vgSUrwQcP5/gg6LBWRa/cWBrF5/IZ70vbrG9Ce+JzQGplYSvYgKBDqejSq2Hr4kC+wOVLvDbR4rSCL40Njy8vfz5JmwD7IYAAAggggECxAvG48XFwJJNYa8DB56ETeUGdSlft3uW99nHdej9oYGnz7ehQ5rg4bFxdy/wPcjPwyKfgA0GHvD7SC9OJb5ZGMlyc4RgLjRK/QdAhMVX6DdvtdmcsX2SBka6IgeUP9m3KU4koHl2N2hJ8YALK2zQ8QwABBBBAoBqBuEETyrVLI3s1JDOXhvnzsCUNVc8noJwFlqRR8Gmyktd4K4+CDwQdSj0Ppb1iji/CrV7dgo1lKRJ0KFD6OtjAl/hqZnMu4yaPL0ftY4IPq7XYAgEEEEAAgSIECDasr+pr8GHWs0GWt/xy/VLXew+t08tW+9DlBiZBh2rOwfjzLr2dfOoVU43U7aMSdLjtkcszgg1ZGGXiyUB6Ply8keADDwQQQAABBBAoQ4BgQ3Zln4IPP//lXw9lLoMjyTM9cBdUvTSSzqMgPHB1Hg+CDgsqrqyXPeoVUxbJsuMQdFims/Z78ZwNRzKE4vO1d2WHuwKnMufDIXM+3GXhOQIIIIAAAvkJxMsgtsbHDKPIz1RWRvjmorV15OJd8klD1ciNnbpPEJlrfb6Q+jxwrT4JOuRZxxnSIviQCI+gQyKm1RttbN0/lK2OmLNhtdWaW7xsmeCA1S7WVGNzBBBAAAEElgho1/qt8cURN0qWIGV4S++Sy5xVh/c/et3LkExuu1LfmSlPo6i179KEggQdMtdpzgnISigte+j7HC85o7xLTiYj5pFFYGPjwe7GVrsvf7S/JuCQRXLhvntjG/x1s90+WrgFbyCAAAIIIIBAYoGfvv+3/fZ4NCTgkJhs7Q112IKscvHtz3951NeJGtdOIMcdtDfL1ng0oL4zoe60wnFflxLNlAo711jAPgvGweCn7x4d1biQqYtG0CE1XRDEDeFw/D+SxF6GZNg1gYD84f5SepMMNMiTYHM2QQABBBBAAIE7Anq3++fv//XEBNGfGMt/B6eop7r6hzREdA6Fog6xLF1tAIWTa9WdZdvx3mqBWSCJwMNqq6ZuoeeITswq37MDDfY11WFeuRleMU9lxWtxwzeMehIxfrxiU94uQEA+zF9djkZHBSRNkggggAACCNRSQHs3hEHUI9hQZfWa0uYGmA6n6Mm16rMqS1zXY8vNsK8efPz6qMryMbyiSv2Exzbmiw8++vE44da13oyeDmtW70a7fRCEUZ+Aw5pwOW4+6fWgQ1q2t3NMlqQQQAABBBCopYDcdTumd4MLVWuf6TCHou+AToZTXPQJOBRX5/Hd7Ip6rxRXKlLOXcDar7V3mQYBc0/bswQJOiSuMFmZYrPdk9mdv5Uv8YeJd2PDogT2NrYuhvfa7W5RByBdBBBAAAEEfBbQuQS0m69ct3zuczlqlvcdHe5QVBd9DTjo3ANS5/TGLfrEkQZlUfVYdNZJv0wBDTZeVD63S5klnncsgg7zVO681m63O9LA7cssxJ/eeYunlQrYh8YGP0xXDqk0JxwcAQQQQAABlwS067XOJUDj06Vauc5LPMmk9EC5fiX7b1rnGnCwMq48e2qkkERA6zH+rCXZmG0aLCBBQPk+LrqXk8vABB1W1I7O3zC2hj/aK5yqfdt+HfdCqTYTHB0BBBBAAAEnBPTuqzXBDzQ+naiOJZmwn//0/aNeHl2vqfMlzEW/ZYKTqlcoKbqIpJ9dQL+PNSjY1MADQYcl59CN+RuIGC9xcuIt6YUyWbqUeR6cqA8ygQACCCBQiYDO36B3Xys5OAddW0BmdP9Uu15nCTzoJKHU+dr0ue2gjUk7Nie5JUhCtRVocuCBoMOC0zoOODB/wwIdZ1/WeR76TDDpbP2QMQQQQACBAgX0rjnzNxQIXFjS9nHawIPeNdVVSQrLGgknFLCPdXnShBuzWYMFmhp4IOgw56S/DjjMeZOXHBewjwk8OF5FZA8BBBBAIHcBDTjoXfPcEybBkgTWDzzMJo3URkxJmeQwSwR0RYumdp1fwsJbcwRmgYcmDcsh6HDnRCDgcAfEy6cEHrysNjKNAAIIIJBKgIBDKjYHd0oeeNDhGGEY9Qg4uFWNYWuc6+SgbpWO3OQpoJ9dHZaTZWhVnvkpOi2CDjeECTjcwPD+VwIP3lchBUAAAQQQWClAwGElkWcbTAIPqzItwzF6rEyySqmC922wp3NsVHBkDumlQPx573mZ9TUzTdBhCkbAYc0zx4vNCTx4UU1kEgEEEEAglQABh1RsHuxkH+uEoIsy+vNf/vVQAg7PFr3P69UKmCBaWHfV5oyjuylgn00+027mLq9cEXQQSQIOeZ1OLqYzCzy4mDfyhAACCCCAQDoBbZQyh0M6Ox/2MsYO5uUznjPA2q/nvcdrzgjs0NvBmbrwIyPyma77fCCNDzpsbDzYDVhayo8PZOpcSuBhs91LvTs7IoAAAggg4JDAm788OmCVCocqJMesSCDp3AbhJ/c/et2blyxzBsxTce81YyLpjcIDgeQCOkdL8q3927LRQYd2u90JwqjvX7WR47UFTPDpZrt9tPZ+7IAAAggggIBDAno3zHKzxKEayS8rGnAYR63ug6d/P1mUqgmDg8AELxe9z+uOCMjcDk1amcARdc+zIcOq4qFTnhdjQfbl+62pj+3tydKK9nF9BcwruRNyJj05hvJHarisnHIB0528b3Zln9ouvWRs+Mnl5c8L/5gvM+I9BBBAAAEEqhSIGzHjYFD3FQviu/0mGMTW1gyslWuZJQ+5xulOtg068nMn/t2z/7TMGnD4xa//Nin3ivxr48RYe+THuaDXo8FQ6nEQ6vVoNLkmvf/x6/7dYmpQrWXG2/q6DeWa1EqdGqs/9+5u6/5z880HT388LCqfb7571LUm+KGo9Em3fAH9Hhi12p0PnwyXfueVn7PsR5SyNfMRd7eXu981Kv1LWR+4H0ShfKFHg9FoNMxStnvtdldOjo78YegGJg5E1CQ4Y85b8scrq08WW/ZFAAEEEEAgjYDM4yAN0prdLNG79hJYiOcwkMbovIboulbacDWh7QQ2kp9yHeN8g9W8iqLwIGnAYeahS+1NV7F4NnvNkZ+nQWBObGD6l63Nfl4NKK1XucY9kM/AvpRzx5GyLsvG6QdPX3eWbZDlPWeCDlX2vLFmu27fiTYInj94+vogy7nh4r6NDDrUZOLIyRe6sSdvR6N+0SeXDkUZB0HXWrNvvJ8x2by6unizW7QZ6SOAAAIIIJCXwGQ1A/t5XulVmE58/SJ36U/yCDAkLcekgWaksepag9W8umhtdbM0zHXSwjCIetJYqaynqjQoZC4K05PgSW/d4EnSOry5XVyfYXDkekDJtIJf3X/yengz73n97krQQQIrTrQn1SMy4fYs2GhssFvlZyJLPRd53mTJV5Z9nThJshRg3X3jiSPjeRw8HUJgg+c2DHplBBoW28rQlPZoX77oD2SbvcXbufyO+UYCD4cu55C8IYAAAgggoAKuNC4y1EYcaCirQboqn7M75nIT5aDaRkn2gMOsrNNeD0cSVCk7MHUqPW2PFk18OctfUT+nn42epL9T1DEypWvMFx989ONxpjQW7OzK94IrQYd5THGvJzPeNyYOOD6et42Lr8n3Uu16OzQv6LB1f+BfNxxzLt0Ojy9HbfnSOjtz6cMRB3HM+FAmNfrUpXwlyYuMg3tSbfAmSS7ZBgEEEECgyQLamGyPR8NqG8cpa0C6XVsbHi+bGDFlyrntpiuBSC/Ow/KvDc0L6eFwkKWHwzyEEhvhlQYbbpZdPyOb45GTS8gW2Xgk6HDzLFj9+2TY1fhQGr9etFnq1tshXF1F9dlisnqBT2MhNdgQfHV1sdW5HI2OXAs46JlxdfXT4OpydNAywa+k58Nzn84W6XbVC4LtbZ/yTF4RQAABBJoloI0p7wIOEmyQv7FPPvjo9dKVGFyoSb1DL5P97Wp+y1oVQhuicsz9vAMO6qlDVi5abV3h5KuifDVtnaugqt4Nd8uljvEYeOlVcPe9qp9LA7dbdR44/kRAh/3oeaKNef0Muu4SvY17lLuezcT5k89CMx6TYRXj//GntNr9f+vIxUDDMsOps/TI8GXYBcMsltVn0ve03qU3ji5BuxtZsytdViWYs/bkPi8nx4snFDuLgqB/T2a7ZtLPpLVQ1Hbb2/faI6nToKP/0tevOZc7iYObdawT38odxqEGL4vKPemWLzCbiPj2+RJ0JCc7yXJzfa7oBMlyjpxZYwdN7Jnmyp3MZPWmW5lXMlfDYZlzNSTPW7ItdX4EE0R6HZPwfE2W7mwrbeyUNUncdBhJL79eHOkmvJyVvYyfP3336Ei+N74s41hJj1HU8ANXvh+KKl9S37Tb5f/5SJuThfsVOhHpwqMW9IZcEzTjsbHV7ktJ99wvrSwrJDMY+34RvrF1/1Csj+QP3UPXzcscZqEX49K9qFuFyaS3TD5HnpVjutRqwZ+rSQNEGx8aiGhiwyOfWkuWyiRwGHXlwrgrwaNd2Wsn2Z6Zt3opDZaBsaafxwo8mXNTYAKzz0+Bh1iYdJ7fA5ODbG9vbl7Ksm22K8/lX9G9CeOl9/p6nlxebvZ9C8yL0VqPn79/NJQdyvoMrpW3mxvLxeS5NeaoqLHrN49V1u9FNF61h8CDj18flVWG2XG0LKEJDuV7PfU1mez7/LLVPiyid8Ysn3n9lElXT+S76Fle6WVNR3vRFBGII+iQtWYm+7s8Sa8Nwk9cHp62Tg00Iujgz2oV9brrHq94EQ9hcD3YU95qFjrERy46vlznQ5rXtlcXo0yf983ND/ZtEO3LEqr71QaTjMyQHfSlZ8XJ1agtFxZuzXOSV32Vl85kYtjJyjRxozH1RWm+eZ40LiUI2/M9CHvXxefvAS3L5Ltdvwe062fRQQY94rJHfJ70ZCnkk7r1iiqi0btMMvV7OpQiDA6KmqE/db5y2PHND486dmy0Afs4a3ISOP+syuEIcVkiGVaaYvnQqoIlac1dmwelqIYjQYe0Z8j7+03mdgm+ff+dal/RYF9ZPaOKLqncdK37Q8bsW73j7vJD5m6w4Sd1W01BLwCloduVP7RfuayvFxNxYMrtTFaSO21cSK+VY/kn3ZujPwXxhKFV916xD+UO/DP5XH+7sTX6x8Zmu6cBkUqAvD2oBhraB/e27p+ooVrGpk71TNKLfJmFPRz/j/RUG8bnoQzj8Za8BhmfnTNjG/xV6uZr/e6svljxefK15knP57p8F2gDUe9MV++7IgfxzPyvu3UMOGjJtVw634M2uldILH276oDDu7LIHBty4+ALuQMhw92SPTTvVfTOSJa7+Vtpb4zIBsfz363gVRvxt6sC9nUOqQFBPdfX2aeMbaWhvl/Gcco4Ru2DDpvtkf7R3ikDM90x5C5NFHYvL38+Sbe/+3vF3XnjD7J2k3f0Yc0xk0pe100cbJDG/LRx8bk0Lh5ev+vYbxII0YDItGEqn3cmB11UQ7N63di6GF4HGhZt7dTr8h0+C0DcH0yChNRzOTUkwyekh5Z+vlw/ZzRw9u67QIJq5fgUc5RoHBzJHS5nv3e10RpFrX+v03CKZTWpjW7tIr9OY13T0+3jrvXSoFmWfpnvaZ2NWu2O5O7FquO6ECxZlcdF71/eax+vW1+L0uL1Zgi4GHjQvwM6z0wdaqDmQYftbekyLI0QVx/arX+rW7euw/O0r0ajngZX5I+co4EH+3AaoJqX/ca8NmuUxsEG/5ZB1Ybp19qgnqxUQ6N0duLqHAI6r811vTocRJpleuFPubMd93KhnhcS5fLGLNhwMZwOCZPPlzePnck5Ij1kPAw+aC8HaSx96q623CxpBbs6E7y7ecw/Zzomf9pYf5UkdW3wjqNWt4ix/EmOv2wb7Qmgq2dot/9FDXPt3VHlcJBl+U/yXtzbIQhOkmxb9DbG6MTaPHwQ0HNeGvrPXcqrBNS7LuUnbV5qHXSYNCJdvbieBByaNB49Dq44HHiYBKia21DVhvrYmsFkCEXarxQX9rMPtZF0HXxwIU/V5GEWbJA7bT9IDvaqyUVRR71bz8397OYtrA11/fxMgg2u/g1NVOpp8OH+QD8LifZwYCPt5eBANhZkwby6aG3VdjjFgkK/e1kbslr+VY2SWcDB9cCMTlA3DaR8866Q8ouWz7chFTfzf/176ETQITDxpMzX2eI3pwV0wlTJ4KlDmew6lJfUWalx0MHlXg6ziQubNwGe24GHZvZ20NUKZLy8LF2oE1x63cC480U4a5S2hz41OO4UItXTyVwcbZnhv47Bhrsks3q+0Hkf9EKBR0qByXeBrPQkPUlq9l3wWD8LOi+I68Ov3O7lMAk4aMM75SlWi920/Dqx2+LAg189QbQ80uvhUIeBSAVJQ8u8mja6vK+vsBUNvC8EBShdQD8T0gvIoesJ+1gnRy0dIucD1jbo4G4vh1kPh5xr0qPkXA48NK23Q9z1OIz60sB47NEptG5Wd7TBoZPMud7gWLdg728/6RI/mYujbj0b3i/t7Vc0YKbDa5oXZLrtkO5ZHLCRSTtl7710Kfiwl/1cenD042VhHc2uu70cCDjcPWUmM8qbWz0EtMHua08QHQZy0Wrvmpbdr0tgqa4TnN49F3mev0C8TKWszJN/yulSbL8d7abb0529ahp0cLWXwyzg0LweDndP+TjwYKxDUcRZDpvT20FXfajfHc1ZPb7/UyeZi4dc1HSli8lQitG0x8r75W/QK3GQyYe72m7Uyfb2JCCnq1E04SEBVgm0ujjXg6u9HIzMTaAN6bo0RPM8y+MeAu9mvPc/MKN1XLuGukMNxzzPPdIqXsDa8Lj4oyQ7QhQE3WRburtVLYMOG+3RvntdQ2UCxSg8aNIcDqtOe51cUmZG/mrVdmW/L8MMpJ7q/JDlEjXg4N9EkTlUinTFj1e60G7WdXlIfUq38elQip26lCp7OfSu9mjg8l3t7GXMlsJkOMVoMFkuNVtafu0tvWLiyUjdGo4TvXXvb48GHHQyRAIOi8/w2Yz3BGYWG/EOAj4KxL0dXJnbwQQdHw1v5rmWQQe5mDi6WUgXfjfWHMR3913IjEN5iJfTDNzpvjSl2XHxLlg+1aYN1It+MwMONwW1QXp/oHMf3HzVt98njUapT11Oksc8gZ1AhgzEQwfmvdvg1+JgTDy0yuUlpYuuIBmOowFYRx6hCdzr/Sd5cn0yRBeqTwMPBGZcqAk382CjoO9mzsjVagFzsnqb4reQm7Sd4o9S7BFqF3SYThjn1t0+Gzy/vPzZiZO22NMpXepXF+19GQfp1lKaNe3tIHd+5Tys9fwNa5yE9rGu1uHrnfCGzMexRn0u23TWuGSFC1W6ce7IPBgNf0iPLxcCD2/+8kgnJnSsPswLn5dMbPiZTfERQCAHgSgKezkkkzkJ6c26mzmRihOoXdDBRM51Tzy9uoyXXqm4ql0+/NmZ9gRxLId7vt8Fv+s5vbDeu/t6s59LN2u527vp2TwP8XwFtVthoOAzURuX2ssnaHbgIT7XOXdun2x6bsgyobdfLPeZTGIswXenHqcyXODAqRyRGQQQQKBkAVd6erkXlF6/ImoWdJCLSePWH25rNAjCxJGrTk3tCWID82LVdmW+L3fBD8s8XuHHauQcDklUp/M8VNzoSJJT3WYSPGI4RVKv29vZxxp4qFtA8XYZlz+zxvaWb9HQdyUQU1XwcbIUmn3mkrwuF8dwAZdqhLykFrAOrMhjwkHq/LNj9QKOTEaqkw1Xj5E+B7UKOrg2gaQ2ot+ORv301dOsPe85t5qFde3OU7NOiLJLqxPLOR140Pk42szHkfm88HtYTebiB7q0KI95AhqQqWK4VTvSya9depgX0wnUXMoUeUFgbYFJQG/t3XLfIbTRWe6JkmB5AjIUt7yDLTnSW7/ndahV0MG17onuNaKXnMgOvDUajYaOrWaxU8UFqANV0dwsOBt4mE4AGjhwx6YWZ8dkWE2TezzUohpzL0R8XvTKHoLj2rWLabm4nHXulU2CDRBovx3tulDM0b22G41WFzA8zIO1lqBRDvVWq6CDU8t+yeSR2ojOoY4alcTlqH3s1KSSYXTQqAqgsDLPpvR42HjgxIXKpDpmAQcmAM339LQPZQjVSdkNzHzLQGr5C8RDcI7yT3d+iq4NrZBxw8/vP3k9nJ9bXkXAL4EoCLou5JihSi7UQvo8SGO5n35v9pwJ1CboUNVYzBnk3Z+t0L1lO+/m0c3nMqmksRJ4cObRdSYnZKQ8AZlc0pXAw8bmSD4PBByKqfzJHA8EHorR9TdV+/l0JazCi+Da0IqwxbVL4ZXOAUoTMC7M8+bIfACloXMgBBYI1CboIGMxuwvKWP7L9HLIZO5Wbwf7mC7YmarT052r6WZ9FyueNJIJQO+y5PxcAg9xYCfnZEnOawFZUamU4Hdk3bgTq5VFLwevT1kyf0dgMumeAwF7V+YDuOPDUwTKFqhN0EH+XO6XjbfoePRyWCST9HVZ7cPak6RbF73d2JHueUWXk/TvCtjH97YuendfLet5PKklAYdyuMV5s90+KudgHMUPAe0Fc/+w6Lwah/6+0Muh6Nom/TIFbOTGanbSe3dQZrk5FgKuCtQi6DC9E73jCPJL5nLIXhNOBW4id+5EZZclhXUEdJ6YMhoed/MUD+2QuSXuvs7z4gSsDb4sq0t9caUg5ZwFjoocejNd/syNaxfpAs5cDjmfPSRXrYB1ZELUkPkAqj0ROLorArUIOkRRuOsKaGCCnjN58Tgjk8CNeeVEEQxBByfqobpMHJU7v8P2diBzSlRX3OYe2Vj9/hZ/HgjEAvbhZntUXG8HhwLa0uOiR6UjUBeBN395dCBlcSGgd0owry5nFeXIKlCLoIM78zmY86vRqJe1Utj/nYArlvKHi4bIu1pp3C+z+R3KKfhkSIcck0cVAjtVDqmposAcc7mALGcpQYdivv8lbSdumEjA4fz+R697yyV4FwF/BKTn2pELubWseuBCNWTPQxh0sidCCvfqQWCd+MPt0jwEdajXlrEnYxt87UJZNjcvu5eXwYkLeSEPVQhMxndfXbw5LvLok6Ec9lmRx8gx7ZeyvO1AxqueybJk/WXpSnS7Kw2sbZl7R7+r95ZtW/V7OqRGV0O6vPyZz3vVleHE8e3DjfZo/2pUQE8AI58HaZVU/ZDPL+d61ZXA8XMT0F4OEnSQm0UuPEI+Wy5UQ8Y8RFHQMRKd5ZFNoCZBB0cuYhm3le1svLO3DrGQRpgMsXBg9uEw0sYSfzzu1FHDnh7J/DEnRc3ZonPTSJDtyF1Tc66BVROEJyka5P2b5dJGvQ2i/SBezsy9Xh3WRMdyd1vyLJPa8kAg7u1QQNDBunHtEprlQUNOAAR8EfjHD53tYKzLTFf/0B5EHzz9O9eN1VdF9hwYejpkRwwC74MO0wv1PCwyp3E1asuXyyhzOiRwLSB3UU8kYv34+pVqfosc6QZbTelXHVXm3rB2YMJgGEThIAqjuQ01+QPc0X9Sn125Q74rwSTPhhDYh+MoDgocrBJJ8/5bWaJP7rI7aCL1a+zx1ehNL0255u0zDVrEF2PxKh1xo86B4OJ1Znd0LP/lyOUg0HVm+a1oAenptPFg9+rqp0FeR/rnn38p34GyNpIDj1Go1y48EPBfYGt8cSSdh5z4O2oD0/NflBKogJlcs1aOcf/j1/3KM5EhA94HHd5OGjIZCPLaVSc95K5YXpqzdLTbtjRUv5w9r+qnNparOrZ7x715x3uzn/a8jydnDKOulO/Aid4skpGVD1laUVY46L0djfort11jA101wVjnhlWcGhsepujVsEbJg2A6D04v7v0Q9zBwo1usBMe+lKB2r6ieLWshebOx/h20Z3KxfRbeWCZOg7YSUNuWSzf551RwKblsGB3IxofJd1i+ZcuMtx0YWSGZNK8+fDI8W55b3kXAfYE33z3q2sB+7kpOTcseu5IX8pFeYNp75nH6FNhzJuB90CEeKzwrTbU/+9Uevp5H18bdxlbbgcJ5eqGcr9yphHuPrkZbJ9eBhp9TH2F613AgCRzHAQgzPpT0P02dYEk7ygoHR3Kobp6Hm6yakGeK2dKSsYtfXY5GR9lSWW/vWe+HzXb7SBv86+1dzNZF9mwpJsdlpjoJPgY6rHDcGqzTC2AWcJRGd1fn0Cgz1+mPZfdl38P0+9/eUwLqUnYnHn0nckEmEMggoA1DO3ZpInfz4v6TH4cZisSujgi0o5EMB3XhoUF9vx/SZueRi8CNuzq5pEciNwTc+KDpUJ4bmWrSrxps+OzqYtSZ3JXOv0ePNliuLkcHLRP8SiZWe+447p72TMgrj/HwAjeW9tIinQZR69/LDjjctNRjWxM8kTuw5zdfr+R3CYI1+HM/n1w+n9ID5hOZVHVbP7P6nbBOwEETjT/vMinr24s3+1cX7Q+lrr+Ql0/nH9CZV3fiYElO2TFGe31U/5AhjBr45YGA1wIyrKInBdhxpRDSc/HYlbyQj2wCMgn2frYUctpbJu3OKaXKkvE+6DAZH16Z3/WB5U7P9RN+y1VA5gvINb2UielQnpS7erub3vGWRsFuWUvBald2bchMGp0ON0ImE8vlU6/OTB5pXsV1neO49bRA2sPp6mKro12/06aR137T3g55JedtOvpdoEFB/XzmO+Tm7ExXhdGg5iT44ECwaVEtTYaDLXp3vdd15QoHHmOuXRyoBbKQReCn7x4dybAtd3pMmeCl72Pvs9RHnfaNh1Y4cm7ZyP8Jf70POrhycq97p8eVfPuQj3iCQgcyGkbhtgPZKCkL5lwb/pM73vn3bFhViEmjs63LyTnZ60G7hOdxB9ydXg4acNjqXg+bWVVDZbyvjVHNU8WBh4b3dpD5GV5osEG/C4qe30KDD7JUsjbGX5Zxhq17DB0Osu4+rm//i1//zYmgvutO5M9NAV0eUwKiX7qUO7lmPXApP+QlvcDm29Fh+r3z3TPUydo9f9Qg6KCz4Ff+cL1baOVAWTKgk0lm2T+3fSfLZuaWnLsJxQ3QTt6TJa5fXml0yl3Vadfr9XcveI9xHr0dnOjl4GLAYVZ5bgQe5DtIzsOmPaTHgQyr0iEQRQcbbsrGvZ0uRl0XA44mx6CDzOPCtcvNiud3BNYUiCeOtMG3a+5W6OYSmHx+/8nrYaEHIfFSBLSXgywn7EzQoQ690moQdHBiiTm+YEr5CuAgxQu41wDVu5/a+Cm+7Gsf4WDtPW7soKs1yNOdGy9V8eupez0c7jK8CzxUNseDDOM7uJurej+XgEMUdssaVjXPMg44OtfTyT7Ma14HaZw8nFfuUl8z/t85K9WLgzkjEC85a4ITZzIkGZGg5Pllq+1MI9UlGx/zsjkeHTvxPT09t+rQK60GQYfqT2VdHqz6XNQ3B9Xfca+v7e2SuRdwmOUvbvw4F3iQBki7fTDL47o/I2NT77vusRZuH7Uk8FH+8JmF+Vn4xtmZNfHqAQu3KPiNnWmQqODDuJD8NODgwNweTgYeWuNdF2oplzxYrl1ycSSRUgU04NAKx31XGoTvCi93xVl+9p2G179oLxoJIn3qSiGkndl3JS9Z8kHQIYvedN+b65HnkBxJOCrgzKSlhfi4G3CYFVcDDzqZ3ey5Cz/Tzmqs80FUvVRgPEmoAw3LpPWowccq698GkQRo6v5wJ+Awk766jO8cns6eV/1TLkQ7Vechr+NbRyZpzqs8pFN/AYcDDi/vf/S6V/8aqH8J48kjHetFI91o+nWQ9zrokOeydXWoTMqAQDqBuKFx4MMd73g5RZnYLl05899rEjjY3l43ZZkPouIGrHk1mSR03ZxXu/3lqH0sOaimAWqqrrPi7Y01B+5Niqy9XNwZ3pJH8FnvohVfmxwBgXoJ6OfGxR4OEog8Z/LIepxrGnCQ5Ved60VjQntSB+F7dSgEZWiEgDY0dhpR0rILaeyhew2NxQhvL7YONrZGA1fOh83Ny+7l5dpjSw8Wl7D4d2SowmHxRyniCGdnxn5waE30pyJSX56mfahDLPJdLnL5Ect913zjatm0l8vGZvu53O1xobtrp9x64WhVCUyWYiz/6OG9oMdkhLfddZUKCfh9e/tVR57JsArqy5G6yJCNWcBBll99nCGZAnY1r+4/+XFYQMKlJ0nQoXRyDphSYCj7EXRIibdkt5dVTha3JF9L3tI7n+0Dmf39hyUblfbWtNt94ii0Dq0Y20r/qL30eZ4UbRhvbLVfSgXvlVbJ0wNJsKYrvyau67Lzl+F4OqHoURC8yZBEsbu2wuBobJ0IOvB3qNiqdib1ypZifBt3pR46A1FxRlwOOFhZreIDhlVUfIZkP/ybHx517PhC/rZXem02vyAm6M1/w79XvR5e4R83OUbALYGWQ92W15GJG82uzGxvgu46eR/nuOzeOsedbStd1Y9mv3v7s7o/wl1vzZZkfDJ8we0JRXUpTZlMy5GhVesPqVrCz1sIILBAwOWAg6xX8YrVKhZUnEcv//T9v+0H42DgZMBBHOsytEJPCYIOHn0wyCoCeQropHx6IZ9nmmWmpXc+5eu4smUUb5R1R3sv3Hi+9Ne0k08uTTT5m6c+93KYFXPaO6eCuR30LkjtGpze9HwJrenNzoEqf95rj3arPD7HRqAJAjq8xdUhFfE8Di27z2oV/p6J2rvh5+//9cQE0Z+kx0r1SxjPozTByzoN3SHoMK+SeQ2B2guY8+mkfN6WdBow6blQgHV6L8jFSreqPEugyQmvfMpvKhnmoHN45JN/N1LxqefLZM4JJwKNblQeuUCgpgI/ff9IV6v60tni2WC/To1BZ50LyJgGG/T8suPgr9K74VkBh8gtSWvD49wScyAhgg4OVAJZSCSwl2grNkomYHUmXLe7UycpSMtYN76QrdlNkt+NjQeyna0som7HLan3mjyisFdJScIoUV1Xkrf1D+pdzxe5I9Vfv5j57iGBw06+KZIaAgjMBOKAQ+DE/C2zLN36KcGQz+5//Lp/60WeOC2gk0TqUB3t2aDBBvkO/9TpDE8yd/rg6d/rc80mZfJ6Ikkzbp0Fodxj5IEAAusJ2Nbxeju4ubX2dri3df/FZOnKKvNokzVEW+PdQFpNFT1OfVqlZJWRlmVj674Mryk3iJPHkomrylbe+8a77wG5WOyLT6V3p7IGHca2dRYarl3KO885ki8Crgcc5M83E0d6cjLpEquR9Cw1Rm4KjUfPJpde1V2Arcsmwa2jdfdxfXuvgw6Ti86268bkry4CNhjWpCi1anzqOG9ZVaDSRoicF3uJzo24R0RFf/Rs9XeIExmtsZFI9qUBWHLdJ+vVskYxKttUegqdXFV29HQHls/6QFau8frxi1//bfDz94+8LgOZRyBPAb0TvTkeHbt8B1q+dp4/ePr6IM9y1yUtbeBXVpYw6ERR0NHjm1CGr9r49x39MyHnkzy8/INxer+Gq6J4HXSIzyUH/qvXnS8HQO9kYbLE4J0XK3gqX2bDCg5bwCGrGQtfQEHiJKdLKBaV/Brp6gSDq4asJOwRscZRE29qzCDxtp5sGEoDVL5/Sw46aM+KJHXtPOKpjxPJ6kSosmSq87g+ZDC+QPcho+Sx1gIacNgaX/SlkI/dLah59eDpjwfu5q/anMncQD9UlgOJKUivgMnDy/jC+3I2CA/ff9X/Vwg6+F+HtS/BWxk/O/s+qX1hSyig3Ck8KeEwpR5Cl9KreoiFzmj/drSqN4HeJa/ur+K9drtbasUUfDBZCeSsCs9kdV1w4bMm73fPl1Mp/k5WAvZHAIFqBa4DDroykKsP8+qitdV1NXfkq2YCsmLFg4/qNZfDrIbqEHRw4eJjbwbKz/wFwijctkZGZlX8mDRwKs5EDoevw5KJdxkkKNWX10q+4307F5KHzu1X5j0rd/6B2zmwX/veLf12efRZNQEc/U56Py+evRKuCpA5XZ6h5M73oEP11y424bAwp08FMuergE8BB5bG9PUs8y/f0gPtwL9cJ8txHVavGCYratFb1W7t9qLBkqfvyGzxOpY4eaad3fKlsznLkDEX6mZV0KFuvQwyVJf/uzrynZQJctzy9/usDvPrGDeG62nDL9N5xM4IpBAg4JACjV1qLyDDRb+q81Ks3gcdpFv1mQtnoXa3dSEfdcxDlHA5wjqWPfcy1eFifQ5KHXtvzCkmLyGQm4DPK5nUYn6deGhQbtWZOqH2W65dUuOxYyqBf/75l7vt8WgoPdWcH1JBD4dUVcxOaQR0WMXHr4/S7OrLPt4HHXQiMRewBbLrQj7qmAcZq+9EQKcODdtaXKwvPsm1u3Jlj1UTyhqCZ5XVTd4HrkEgtNLPSt714WN61rpx7aJLyvnoR579FNCAQysc92Vg3EN3SzCZw4GAg7s1VLecSU/Z8zoPq5jVl/dBB/niGs4KU+XPGlyEVsm35NjxsBUHxu6a8yWZ9OYtucDse5PZ9TM6XH+X8vYwxm6XdzSOVKSABEJ9r8thkT6kvVrAhG700ozXsF+dXbZAILMAAYfMhCRQU4EoCA/qPKxiVm0EHWYSGX9KlKqbMQl2nyOwuXnpiKsbd6XmEPHSVMCVoVZUCAKuC/BZqb6GTOTG3xQJoHWr1yAHdRcg4FD3GqZ8qQWM+eLB03quVnHXxPugw9tR24nhFTI27eHGxgMnhgHcrWSfn8sEgV0n8l/TuRCcsM0pE64MtcqpOCSDQGECfFYKo02c8OieG9cu2s1dG4SJM86GCKwp8OYvjw4YUrEmGps3QkC+f59/8NGPx40orBTS+6BDEJydSTncGJ8aRt2mnDjlldPul3esJUcyZrDkXW/eqsO8FN5gk1EEEEBggYCOF9dxvAveLvVlY8Zu/J0ttdQcrAwBDTjIfEffanCrjOOlOYY2/C5aW13mcEijxz5pBfS8e/D09UHa/X3crwZBB12p3ZkGYaNOnqJP+GnPkZ2ij5MkfReWZEyST7ZBAIFSBPZKOQoHqbWANYETwWyZ14GgQ63PtGoKNws4VHP0ZEedNfwIOCTzYqt8BGbnXT6p+ZNKLYIO7nQVtY/b7XbHn+p3PKdhdOBKDukh4EpN+JsPGwUdf3NPzhFAIG8B+U7o551muvTs4zc/POqk25e9EHhfwKeAw/u55xUEihNoasBBRWsRdHBpRn7Jy0Fxp2rTUnZkaEUQvGyaPOXNX6Dmy5XmD0aKCNRdwIRO9HRQZjs2h3XnpnzlCPz03aMjHVJRztHSHaXJDb90YuyVj4D5pmlDKm661SLo4NJdaPmiPbgJzO/pBDY3P9Dunjvp9s57L2eG72QuGD1xMhOSAAIqQCCS8yCzwGVrs585kZwSkFUsDnJKimQaLPDT9496xgRfOk0QrxbQrLH0TtdHQzInn4vPPnj6Y6ODu7UIOkzPV1cuAnemDeaGfIyKKaY1kTMfTGNNv5hSlp/q26C+XfytNdvli3JEBBBAIJ3AZBy5eZVu73z3kju/D7VLfL6pklqTBOKAQxB86nKZ44Zfg1YLcLkuGpS30yhq/fv9j173GlTmuUWtTdBBvkj6c0tYwYsuNZgrKH7mQ07vxu9lTiinBC4vfz7JKSmSKVTA7haaPIkjgAAC+Qv0808yXYrSU/Mo3Z7s1XQBXwIONPyafqaWXX7z4qLV3v3Fr/82KPvILh6vNkEHO2651DDcu9dud12scB/yNI7cufCRlVFe+GCWNI+mxj0dkhqwHQJZBeR74SxrGuyPgArIudR3SGLnzXePug7lh6w4LvCPHzrbBBwcrySyV7qAXGuf2yD8RIZT7LMyyjV/bYIOV1c/aRTp9Lpo1f5muGOQqgLiXg7Gne558sXRT1UQR3eqedCh0t4xKxuikTuTxjl6enqTLXdWTPKGjIwuEHjw9O8neoG64O3SX5ZlPHulH5QDeimgAYet8UVfzl9nh1ToZ0uux5/Qw8HLU8zTTJtvRq12R7/bPS1AYdmuTdAhFrJONRDp7ZDitB1bty54WsbW6ksjsmY3RbU4v4sLE2SuaohGYXTmPCQZRACB0gVk1SuX/s7sMLdD6aeAdwecBRykr85jVzOvAYdx1Ore//h139U8kq8aCZjgpc7doJNF0rthfr3WKuhgQ7carBJd7c1n59V5AtMhKZXerb6Tr5ej0Wh45zWvn8oM5bUMOkRR6Hy57gVBrc4lrz8IWTNPr5Wsgux/SyB0KeigYz6OtVF5K4s8QWAq4FPAgbH0nLaFC0iwQXvTfPDR6y7n23JtuQ6uz0OXztzYap9KiXYcKdXOxtb9w6uLN8eO5MfhbGxvGzvqOZXBenYz3dFeAXULplhju5WfOysaomou309VZvNUJtztVZmBuhw7NNGgLmWhHNULaDfcN98/kjHAwcPqc6Mxh+ChdJs/krwcupAf8uCOAAEHd+qCnFQtYF4Ya4/vP6UnTdKaqFXQYVJocyJ/Mj9PClDCdkfSyDupWyMvb7eNrfgCx5VgUVy8q1FbzqVR3kWtPL1xEHQlE73KM5JrBux+rsmlSCzZ8AldHq+67qiXo9FRiqKxCwIIFCygQyzcGhtvP5dJJU/oml5wxXuU/D///Mvd1njUdyU4Np9O/sa27P4vnv5tOP99XkUgvYAO2ZH5u3qmJcGGJz8O06fUzD1rNbxCq1DG4B+7VZX2oWvzFLjlEwSTYRVOBYr0Vs/zIDg7c80qj/xYaypvoOdRjlka0/kcKg9YaU+rWZ4W/ZSLteGi90p4fWdj48FuCcfhEAggsKaAjVqOXbvIn0HpGcUwizUrsqabxwGHcOx8wOGitdW9/+T1sKbVQLEqEzAvdDUK6dWwrXM2cI6lq4jaBR2mPQpepuMobK+9zXb7qLDUvU5Yh1Vo7xS3Hq7ND5Knjszr8CwItrfzTLPKtOQO4UGVx58c2ySafX7VZJOFlyOMHLAqvJQcAAHvBCZjgbUnlFOPHRlm0XMqR2SmdAGfAg5M4Ff66VHLA056NATPZUjqZxet9oe69CWrUWSv6toFHZTE2NC9OwY2+HJz84P97FVWrxRkWEVf7qc4MY71Wta8SnLX+np7/37baI9qcy5a60LQwQ6SnAUSIOkn2a64baofhlJc2UgZAb8FjHM9NdXTPvvpu0dHfsuS+7QCBBzSyrGfTwIaZJDW44vAmC90BQrt0fDg6esDXWqVQFZ+NVnLoMPl5c8nQnSaH1M+Kclkdz26N19bbmy2e3JB8/j6FUd+c/LCL2cbaw5zTrGS5KaBvMqHVkg0vJ8EwIFg1s5Gu32QJK9sgwAC5QroBe7k4rfc4646mny/fckymquU6ve+1nnL/SEVL3RIBQ3D+p1/xZVIe5TJcAkbfKVDJkwr+NV02MT+Bx/9eMwKFMXJ13AiySmWCY5kXP63xdGlSVnu6IdRX7q2d+o6X0BSFVnV41gCDp8m3b7E7U6vRqNeicer6FD2sc6l4UAjOFP5rYncCJ6sWLniTiFfyvO9O6+V93TSM6RX3gE5EgIIJBWIZLlKbeQngT7I6gAAHB1JREFU3b6s7eQC/dufvv+3M7oYlyVe7XE04KB1Xm0ulh/dBsHzB09/PFi+Fe/WXOA0MHPmyrJmYK09i8tuwkFoo7PRvfaA4FS1Z0Ntgw7acJTl6Y6Ed6da4rtHtw91SMHVxXa3qYGH+E6rdWziyFk1abCqIQ9ZV1jL2vW1uNrLwQbRngv5v7zc7AfBz4myor0i5GKuynzvqd20R1iiPLMRAgiUI3B5r33cHo8OpUHl2LDDIAiDqCfd7VmLvpxTobKj+BNweH1QGRIHviXwwdPX0kmLBwLLBWo5vOJdkZ1tQNrHk7kM6jOZ3zvzFb/EE2q6Gz1vSC+Hd5W0529X++1t6eUgvWVceGhXveQrndhx66TqXLtjV7UEx0fALQG9E6e9HdzK1SQ3GgjR7vYMtXCxdvLJEwGHfBxJBQEE3heoddBh2k3eubkdJtWggYfRoElzPOgcDnKH98v3T0NHXnE2SFWgjzVycetf8EuCdkeislOgzDpJ99fZ+Orqp4FsX/X30g4r6qxTa2yLQHkC2ttBbhvKxGbuPTTwoN3uCTy4VzdZc6QThjo/pELG4esEf1nLyv4IIFC+QK2DDjGn2w3JHZ3jQcfWl1/1ZR5xe/ve1v0TGXf1aZlHXfNYTevlMOWxD+9t+bUk2uTz4s7wHFnytb/muSabV79MrAYAmxT0XL+O2AOBagRc7u0wE9HG6c/f/6uTPTJmeeRncoGfvn/Uc3EukZslkPx99uDj10c3X+N3BBDwR6D2QYdpb4eX7laJfShj63+QiRUP3c1j+pxpo0aHkhhZdit9KsXvaY0Lyy4WX855R9C68WeYxfa2NPJP5pWjmtfMeaq5EaKwV01+7xx1MrHt9p1XPX8qQc7aB3I9ryKyv1Jg2riqukfUinzaz3/+y6P+P37o1Ow7ZEWxa/Z2HHAInL4pJCsZBp/p6i41o6c4CDRKoPZBB61NaVAeuV+r9muZ+LLvY1f3RbZxICVu1Di4LOaNTFtZOsf3VRxuFCfdr3LXyv2G2vb2ZC4UWQXGlYe1qQIgkyEWOhdE1Y/JxLZ1+d6ZBDlHAw1M0Yuj6nOL42cVkOXcDrOmUfj+MimuTHw5lJUt9gs/FgfIXYCAQ+6kJIgAAgsEGhF0iBuUNni+wMCll/ekUTX0567zfLp2u92ZBFDs1xLycaeBODe75vyese5f2M3Ne74vut5QmwwDcSuAZYIwVdAhrjljj/OtwbSp1WNi2zhoFgc5da6PyfLEBB7SnhPs54JAvDylCRzuqTlR0nkeTBD9SYZbnLz54VHHBTvysFxAe6e4HnAwMq+JBN4+oYfD8rrkXQR8EWhE0EEr4+qyLQ1L4+TETLdPFrlYlrvO2mh3/87z7Zzr3VKdnG5sg7/KO3t333XxuZGG32g0GrqYt/Lz5GpDbTIniINDdE5TDa2YVuzVqC0BC1e+k/wOPGivKh2mdjvI6er5XP4nmyP6K2DC4EAbX36UQIZRjoOBTkjo85CLuEEuZfDDfP1cavm2xjrs1d0hFXrOj6NWNw68rV9E9kAAAQcFGhN00CXt5E7ugYN1sChLe/FcD7Lig/YcWLSRG69Pgg3aS0Mnp3MjT0lyYV5djkZHSbZszjbThlq7feBGmSdDKhwMOOgY0142I/lOcqa3g5ZkEnjwq3fAdJLaQHtVzXvE53OvLsNH5pWQ1+otcP/J66GrS2jOk7fa68EEX8ZDLjwLPmgvDZ0cU/OuZZhXPt9fmwUc9Pve1bLMAg6/+PXfBq7mkXwhgMD6Ag0KOgSB3pXU8fvrM1W4h6z4oD0HXOz5oMEQ7dlwHWyQC3yfHlF44FN2y8ur1GPc2+a+dP+vbjlN7emj55arF0fy5dnLWieXo7YYu9LbQUsjF6IyRMGHiW11GJqeH6sDUn734sh6jrG//wKTSSVdmAMmueXN4IM25F0edqHzUejQEDvWXpr2c8178pL6syUBB3/qipwiUEeBRgUdtALfXmwdyI9T/d2zx6Tnw1Z7qA39Kns/bG5+sK9LYGowZNKzwbNgQ1zx5ovJZH6enQWlZtd+vrE1GpQ/zEd7N9w/fr+7fKmFX34wmSMmn2E5rvV20GLr53kysa2LvR4mwSiZdFcCY5O8Lq+qybsEHpIosY27AqZl9/UOsLs5nJ+zSQNeGvLSoJeG/eDNXx4daON3/tblvaqBBp3T4M33j850Pgr5LnlW3tHLP5IPAQcJwL/SIRX0cCj//OCICJQh0Liggw6z8Hx5xB1t6E96P9wfaOOs6EZhPDGk3FXUQIMcT/yiP62+u1jG6ZvuGNrb5erijdxh5pFAYCce5lPKHCPXw3TkAvDzBHmrbJNWmN+KOO71dnjHuheE4//ZcGSI1yzYMAlGpZkzxj6eTEb6rnz8goA3AjrMIjDBoTcZnptR+1iuX77dGo/+oQEInfvhzXePunM3zflFPY4eT5f4/Pn7R3IZqNcxwad17dVwk++ff/7lrg4Zkb+rj2++7tbv5tVFa4uAg1uVQm4QyFXgXq6peZKYrmYhvQW+mtyl9yTTc7MZ/wF5LBfhcke6rVu8lEjxQH4OrbEDqdzhundj9cI+jMJt6WK9G1mzK8GFXQlw7Gji8rv+8P1xOunt8sb3cpSd/1lPm5dyIvSuRqNeXhnQoNbYGrmYvjiQz+RDuTDKK+li0tFeDhd6AZfX4+wsCO4fSWpf55VirulMhnh9Kt8xL40Nj7NMnrl+vqTXS3u0L6fEgfzbW3//23tosFSDKFeXo4Pb7/AMAfcFdBZ/uTvf1cay+7ldlUP7WOZNeCzf9l9KEEAvMF7K+uYD+Tk0kR2MbesszR3vWRAjCoKupNUxgdnVxrYcR57KQ39p0EMDDq1w3Jdiy99Wlx/28SQYJedCQx5y7f7k/sev+w0pLsVEIGhk0EHrXScQlDv32qh+VqPzYE/+oso/+eMqf2HG8nMajNCXJCCx8NGRd3bid2U/6ckQ/2GuSZDhRqFl7HwU7mtvlxsv8ut6Anva+NMeNnKq9GUixJNg3BqsN1RFJv9rj3ZlYlepi6A7tho8k9Q8eWgvh6uc86o9b8T0QBzEwtnHnnw3aN2fB9ae6HKhl5eb/bw/T3EQSs4LK+eHCUbPcj81JIgigQdZ0YjAg7NnGhlbKHDZah/KygNxQ3rhRj6+EQcV5folvgYJgtCMgzgYEZdF5rMwdvHfbRt0ZLMd3XT2lyQOMOgL716JnzTqP38CDo2qFgqLQGMFGht00BrXO94yEVnf8Qv9vE7OvbwS8jYdYw/Xaxx7W9ISMm5lXfZAG4TPpAv+LLg1DWyZgQQjbl0gTnvNbEvGOkEw2plcB84uD0vIbk6HkDtzX63beyjpoaV30nTZx6R7VLWdzPkgDXcbRNL7YSSZuP9KghADWdpvKOHKvubq7ag9WBWM0ODCWzkf5DyK/5Xas0oDD1v3Bwyz0tri4ZPAh0+GZzIp474uTSnfoI7fvc5LVoKx/v25yKvwqdIh4JCKjZ0QQKBAgUYHHfSiuGXa+9K1Wy6QfZwMscAzo2ZJa2NRerf0alYs14ozDWzZPRkmcetRj14z5vxytHUsQZNbZcvriQ77kobwN/Jd9HleaZaTjjQItJu01LkEEL7UY06CEfGQr4VZkGFbun380NOl/HNEJstst8/yHCo0LQ4/EChUQOd3kEZlN5Q5Vwo9EIl7KaCTdQZ2rL0RGxKU8rKayDQCjRNo4ESSt+s4vmsZhV255PVuVujbJeHZQgEZg6/DaRa+zxsIJBCQ4SAHq+7eJ0hm6SZXF1tH8l30aulGvJmfgC4NK5Pk5pcgKSFQjoDOdyDB9M/KORpH8UVAAw4SAP6WgIMvNUY+EWiOQOODDlrVcZf7OPDQnIpvTEkl4MDY7cbUdmEF1RVPyplAUeYbicIDgqCFVeX7CcsFetErAL1/UF5BILuATixJ4CG7Y11S0GVANeBQl/JQDgQQqJcAQYdpfcaBB+4a1OvsljvGV5ftw5oViuKULmDOJyuelHPgyXeR5bwthzs+ivRiOdnYeLBb4iE5FAK5CBB4yIWxHonYiO+wetQkpUCglgIEHW5Uazy2l8DDDRGff5WAw8VWt+ju8D4LkfdkAmUMq7ibk/i7SHrp3H2d50UJyJw+YdQn8FCUL+kWKaCBB+lOz/dFkcikjQACCCCQSYCgwx0+Ag93QDx8ql3hCTh4WHFOZtl8U86wivcLr8OC9Fx+/x1eKUZgEnjQVTWKSZ9UEShO4MHT1weBMV8UdwRSRgABBBBAIL0AQYc5dnHgIWr9O+Oq5+C4/pLcHX578WafHg6uV5QX+XspSypWOsxhMqyDiSXLO1vsQ1nN6CQItrfLOyZHQiAfgQ8++vGYOR7ysSQVBBBAAIF8BQg6LPC8nlySVS0WEDn4svmGSSMdrBYvs6TDc9oSvKr6cXY26bVD4KG8mrCPN7Yu+gQeyhPnSPkJMMdDfpakhAACCCCQnwBBhyWWGnhoGbvLEnZLkFx5S+biqPqutCsU5COrgAQa4xUkZCUJJx4EHqqpBlfqv5rSc1R/BTTwEElvTRME5/6Wopk5j+vsXjBsZukpNQII1FmAoMOK2h2NRkO908jY6hVQlb1tzq0JnsRDYirLAweuj0AccOjGPZ2cKhSBh/KqYzYJbXlH5EgI5C3wi1//bTCOWl1umuQtW2B6Jng5arU795+8HhZ4FJJGAAEEKhEg6JCI/exsMk8AkzQl4iptI/NKe6K8HY36pR2SA9VYwNWAw4x8EnggADrzKOLnLOBAL4cidEmzXAENPFy0dBUnJqQtV369o8W9G2QS0A8+et398MnQkR5265WBrRFAAIFVAgQdVgndeF+67x8H8QSTwemNl/m1EgGZv+Hiza72RKnk8By0ZgKuBxxm3NMAKMtpzkBy/EnAIUdMknJEQBuxHzz9cZ+VLRypkLvZkN4NQSvY1UlA777FcwQQQKBOAgQd1qxN7XYtE8ztcrdxTbj8Nj+Nh1NUvKpAfsUhJQcETmUOBweHVCyWiSdMlXlMWGFnsdFa70gQR4OYrHqzlhobeySgjVqd54HhFm5U2s3eDQyncKNOyAUCCBQrQNAhle/kbqOx4Sdc9KcCTLmT9m5oM5wipd5kN/MNF503AeNVKnbdm8PhZh7n/z5Z2jfsUp/zfZK+KksMfsWqN0m12M5nAR1uIb0edq0NvvK5HL7n3QbBc527gd4Nvtck+UcAgXUECDqso3Vn28vLn09kksmOXPRLQ45HgQI3ejcw1jqLszGWJRhngPHdbR3v7O85Nel5FY/Z5jtoVq+Jf5pzDRxfjkZHiXdhQwRqIPDg49dH9HqooCJlKIW6P3j6+oC5Gyrw55AIIFCpAEGHzPw6udubQ+3yL0m9zJwcCdwQkEaB3oW8GHWYLPIGS+Zfmz4hoczfoEusXo4OfA44XJ8Gt76DTq9f57clAi81YKyB4yXb8BYCtRWY9XrQuR4MS2sWW88SbDA2eKITRap7sQcjdQQQQMBNAYIOOdWLNoqlcdzVxowkyYV/Vle5C60rU3AXMivkov3frcjStDvkL/W8quMSq9PvoI4G6qT31fmimm/26+pivoi/qz3u4dLsOqT0eQpoF3/t6k+PzTxVp2ndCDbc//h1v4AjkCQCCCDgjQBBh5yrShszemdeL2y58E+BGwcbgl/pXWhWpkjht+Yu2ktnEiireyP1urFZ9/NKA3UaWAnks7Tm6VDvzSfDaTpyzjNLfL1rmtKtKTBd4eLQtIJf6XwDa+7O5ncFCDbcFeE5AgggEBB0KOgk0AvbeL4Hej4kEybYkMypgK00UBY3Uus6PKiBjU0NrGjgjmFf8QfmZbziTW2G0xTwJUCSCIiArqKg8w0QfFj/dDAyREUDNmqnwyjo2bC+IXsggEC9BQg6FFq/MtZ61vMhDj6YV4UezrvE5e4zwQYnai1upL4bHlSbXg8vA5m0qz5zN6x/qsyGfcXBB/msrZ+C13tMgg1yXjMnjNf1SOZLFrgZfNBhF9qgLjkLHh3OvJIhbZ/pEBUN2LD8pUdVR1YRQKBUAYIOJXFPgg+yDryukx1f/NemYZdG8FSHn2hPEIZRpOErbp/Jebrl9bwANjAv4jvb0tj0cSnMImo3Dj7Inf6WCX6ljYhaD/2S79dZ/RNsKOJsIs2mCGgDWpbYPNQGtTas5XuDGyeTytdrmG/iXg2yBOn9j173WI2iKZ8KyokAAmkF7qXdkf3SCUwbQQdBsL290R7tSwBCfg/20qXm017aq8Ge2DDoXTcE3vhUgAbl9ezschQcyTl6vNkeHVprDoPAPnQbYHJ+tcLgaDR6M3Q7r9XlbjqfhdRncLjRbh9I3e6bwD6rLke5HVkbAccyTOhkdDEa5pYqCSGAQDBtUPeEovfPP/9yNwyjA/neOJDhBI7/Xciz8uKASz+Kwh4rUOTpSloIINAUAYIOldW0Dr0IenL4Xrvd7ozl4l8advKvTgGISUPQBOEJS9NVdqJlOPAs+BAcaQPVxQCZ9mow0tC8Gr3paUGvMpS2abtqrxYps/ybBEAnAYig636ASXI9eWig4SSQRsCsRwv1P6PhJwLFCEwb3HHg8qfv/02uWSIJXOr3RrBTzBGrSVXKJHM0mL5MtNw3oT25/+THYTU54agIIIBAPQQIOjhQj9O7j8eSFfk37QERyR9x4+Mf8sndACsNwbejN30HeMlCDgKzBmr1AbJJIEumwO1fjdonAcse5lC71wFQTexeu90NpRFhbfz941IvrFNpBAykMdCPezTIZJk5FJ4kEEAgpcCDp3+X7+BA/wXaA8KY8b4J5XvDenrzRFadsFHQl++/PhNBpjwp2A0BBBBYICDXbzxcFogbedIACKzZlTuQ8s+lP+bSAAzsQMZ69uVu4+DycrNPI3D52bTZbh9JY+7L5VsV967U1Ve6pGI+R9je3ty87AZhtDtpoMbnaN7dbV/K3exBYOwgGLcGszva+eSfVJIIbGw82A1aY1mC8913UEf2K/iupgYv7dnsu0W6cw+mwdkkWWYbBBCoWODNd4+6kVy7GPPue6Pg74w1CywBBvlOk+sXOxjL3xaGTKzpx+YIIIDAmgIEHdYEc2FzbQTIH8qONvYiaQjI2MptaZhpUCLvBt+suKfyy1DuXgzlLsZQLiT60kVmSCNgxpP8Z72CDvPKvb19rz2SczLo6D/d4vocnbe9vDY9r/RdK+eV/uP8WmDl0Mv6PWRb4+2bdR3X4aSHxNKcSo+Fs1ADSbOHBC2jMDqj3mcg/ESgXgL/+KGz3X472rWhXKtY+dtg5CaKNXLtYh8XWNJT6TEq1y5mYK090x4MY9s6I8BQoDhJI4AAAgsE5HqRR50EtGfE22ljL4zCbQ1MrFW+6cW/7vN21JZGwdnZWvuz8VKB+gcdlhafNxFAAAEEEHhPQHtGzF7UwISN9GZKsocJzZmJroOYDI1I5sZWCCCAQJkCzOlQpnYJx5r2PhjeONTJjd/X/HW05vZsjgACCCCAAAIIrCdwJ1DQX29vtkYAAQQQcF1AepvxQAABBBBAAAEEEEAAAQQQQAABBPIXIOiQvykpIoAAAggggAACCCCAAAIIIICACBB04DRAAAEEEEAAAQQQQAABBBBAAIFCBAg6FMJKoggggAACCCCAAAIIIIAAAgggQNCBcwABBBBAAAEEEEAAAQQQQAABBAoRIOhQCCuJIoAAAggggAACCCCAAAIIIIAAQQfOAQQQQAABBBBAAAEEEEAAAQQQKESAoEMhrCSKAAIIIIAAAggggAACCCCAAAIEHTgHEEAAAQQQQAABBBBAAAEEEECgEAGCDoWwkigCCCCAAAIIIIAAAggggAACCBB04BxAAAEEEEAAAQQQQAABBBBAAIFCBAg6FMJKoggggAACCCCAAAIIIIAAAgggQNCBcwABBBBAAAEEEEAAAQQQQAABBAoRIOhQCCuJIoAAAggggAACCCCAAAIIIIAAQQfOAQQQQAABBBBAAAEEEEAAAQQQKESAoEMhrCSKAAIIIIAAAggggAACCCCAAAIEHTgHEEAAAQQQQAABBBBAAAEEEECgEAGCDoWwkigCCCCAAAIIIIAAAggggAACCBB04BxAAAEEEEAAAQQQQAABBBBAAIFCBAg6FMJKoggggAACCCCAAAIIIIAAAgggQNCBcwABBBBAAAEEEEAAAQQQQAABBAoRIOhQCCuJIoAAAggggAACCCCAAAIIIIAAQQfOAQQQQAABBBBAAAEEEEAAAQQQKESAoEMhrCSKAAIIIIAAAggggAACCCCAAAIEHTgHEEAAAQQQQAABBBBAAAEEEECgEAGCDoWwkigCCCCAAAIIIIAAAggggAACCBB04BxAAAEEEEAAAQQQQAABBBBAAIFCBAg6FMJKoggggAACCCCAAAIIIIAAAgggQNCBcwABBBBAAAEEEEAAAQQQQAABBAoRIOhQCCuJIoAAAggggAACCCCAAAIIIIAAQQfOAQQQQAABBBBAAAEEEEAAAQQQKESAoEMhrCSKAAIIIIAAAggggAACCCCAAAIEHTgHEEAAAQQQQAABBBBAAAEEEECgEAGCDoWwkigCCCCAAAIIIIAAAgj8/3bsGAUAEIQCqEX3P1Mni2h3CnR6q8L/8HCSAAECBDwd3AABAgQIECBAgAABAgQIECBQIrBKUoUSIJAKnIg9R7pqGb7+liIlBAgQIECAAAECBAgQIECAAAECBAgQIECAAAECBAgQIECAAAECBAgQIECAAAECBAgQIECAAAECBAgQIECAAAECBAgQIECAAAECBAgQIECAAAECBAgQIECAAAECBAgQIECAAAECBAgQIECAAAECBAgQIECAAAECBAgQIECAAAECBAgQIECAAAECBAgQIECAAAECBAgQIECAAAECBAgQIECAAAECBAgQIECAAAECBAgQIECAAAECBAgQIECAAAECBAgQIECAAAECBAgQIECAAAECBAgQIECAAAECBAgQIECAAAECBAgQIECAAAECBAgQIECAAAECBAgQIECAAAECBAgQIECAAAECBAgQIECAAAECBAgQIECAAAECBAgQIECAAAECBAgQIECAAAECBAgQIECAAAECBAgQIECAAAECBAgQIECAAAECBAgQIECAAAECBAgQIECAAAECBAgQIECAAAECBAgQIECAAAECBAgQIECAAAECBAgQIECAAAECBAgQIECAAAECBAgQIECAAAECBAgQIECAAAECBAgQIECAAAECBAgQIECAAAECBAgQIECAAAECBAgQIECAAAECBAgQIECAAAECBAgQIECAAAECBAgQIECAAAECBAgQIECAAAECBAgQIECAAAECBAgQIECAAAECBAgQIECAAAECBAgQIECAAAECBAgQIECAAAECBAgQIECAAAECBAgQIECAAAECBAgQIECAAAECBAgQIECAAAECBAgQIECAAAECBAgQIECAAAECBAgQIECAAAECBAgQIECAAAECBAgQIECAAAECBAgQIECAAAECBAgQIECAAAECBAgQIECAAAECBAgQIECAAAECBAgQIECAAAECBAgQIECAAAECBAgQIECAAAECBAgQIECAAAECBAgQIECAAAECBAgQIECAAIEfgQsQqJ5n/KCakwAAAABJRU5ErkJggg==;" vertex="1" parent="1">
          <mxGeometry x="80" y="351" width="101.63" height="86" as="geometry" />
        </mxCell>
        <mxCell id="VLIAMMphG7205jD4h9c6-14" value="G2P Payments Bridge" style="whiteSpace=wrap;html=1;aspect=fixed;fillColor=#F5BB1A;" vertex="1" parent="1">
          <mxGeometry x="324" y="355" width="90" height="90" as="geometry" />
        </mxCell>
        <mxCell id="VLIAMMphG7205jD4h9c6-18" value="Beneficiary Bank" style="shape=mxgraph.signs.travel.bank;html=1;pointerEvents=1;fillColor=#0066CC;strokeColor=none;verticalLabelPosition=bottom;verticalAlign=top;align=center;" vertex="1" parent="1">
          <mxGeometry x="880" y="254" width="70" height="60" as="geometry" />
        </mxCell>
        <mxCell id="VLIAMMphG7205jD4h9c6-19" value="Mobile Wallet" style="shape=image;html=1;verticalAlign=top;verticalLabelPosition=bottom;labelBackgroundColor=#ffffff;imageAspect=0;aspect=fixed;image=https://cdn3.iconfinder.com/data/icons/finance-152/64/15-128.png" vertex="1" parent="1">
          <mxGeometry x="884" y="459" width="57" height="57" as="geometry" />
        </mxCell>
        <mxCell id="VLIAMMphG7205jD4h9c6-20" value="Treasury Bank" style="shape=mxgraph.signs.travel.bank;html=1;pointerEvents=1;fillColor=#0066CC;strokeColor=none;verticalLabelPosition=bottom;verticalAlign=top;align=center;" vertex="1" parent="1">
          <mxGeometry x="500" y="364" width="70" height="60" as="geometry" />
        </mxCell>
        <mxCell id="VLIAMMphG7205jD4h9c6-21" value="ID Account Mapper" style="whiteSpace=wrap;html=1;aspect=fixed;fillColor=#66B2FF;" vertex="1" parent="1">
          <mxGeometry x="660" y="210" width="80" height="80" as="geometry" />
        </mxCell>
        <mxCell id="VLIAMMphG7205jD4h9c6-24" value="Beneficiary Bank" style="shape=mxgraph.signs.travel.bank;html=1;pointerEvents=1;fillColor=#FF8000;strokeColor=none;verticalLabelPosition=bottom;verticalAlign=top;align=center;" vertex="1" parent="1">
          <mxGeometry x="878.5" y="354" width="70" height="60" as="geometry" />
        </mxCell>
      </root>
    </mxGraphModel>
  </diagram>
</mxfile>
